<svg xmlns="http://www.w3.org/2000/svg" viewBox="-394 196.9 169.1 169.1"><path d="M-271.6 196.9h-75.8c-25.7 0-46.7 20.9-46.7 46.7v75.8c0 25.7 20.9 46.7 46.7 46.7h75.8c25.7 0 46.7-20.9 46.7-46.7v-75.8C-224.9 217.9-245.9 196.9-271.6 196.9zM-239.9 319.3c0 17.5-14.2 31.7-31.7 31.7h-75.8c-17.5 0-31.7-14.2-31.7-31.7v-75.8c0-17.5 14.2-31.7 31.7-31.7h75.8c17.5 0 31.7 14.2 31.7 31.7L-239.9 319.3 -239.9 319.3z"/><path d="M-309.5 237.9c-24 0-43.6 19.5-43.6 43.6 0 24 19.5 43.6 43.6 43.6s43.6-19.5 43.6-43.6C-265.9 257.4-285.4 237.9-309.5 237.9zM-309.5 310c-15.7 0-28.6-12.8-28.6-28.6 0-15.8 12.8-28.6 28.6-28.6s28.6 12.8 28.6 28.6C-280.9 297.2-293.7 310-309.5 310z"/><path d="M-264.1 225.2c-2.9 0-5.7 1.2-7.8 3.2 -2.1 2-3.2 4.9-3.2 7.8 0 2.9 1.2 5.7 3.2 7.8 2 2 4.9 3.2 7.8 3.2 2.9 0 5.7-1.2 7.8-3.2 2.1-2 3.2-4.9 3.2-7.8 0-2.9-1.2-5.7-3.2-7.8C-258.3 226.4-261.2 225.2-264.1 225.2z"/></svg>