<svg xmlns="http://www.w3.org/2000/svg" viewBox="-422.7 223 88.1 90"><path d="M-395.8 266.3l-0.9-8.8c-0.2-1.6-1.5-2.7-3.1-2.7l-15.3 0c-1.6 0-2.9 1.2-3.1 2.8 0-1.1-0.6 8.5-0.8 17.3 0 0.1 0 0.2 0 0.4 0.5 3.1 1.7 7.1 8 9.2 3.8 1.2 4.6-1.8 3.2-3.6 -1.4-1.8-2.7-3.2-3.6-4.4 -0.8-1.2-0.7-4.5-0.6-4.9 1.1-0.7 3-1.4 3.9-1.8C-404.5 268.2-400.3 267.1-395.8 266.3z"/><path d="M-338.4 280.3c-0.5 0.9-1.3 1.8-2.2 2.7 -0.3 3-4.1 6.2-10.3 8.6 -7.4 2.9-17.3 4.5-27.8 4.5 -10.6 0-20.4-1.6-27.8-4.5 -6.3-2.5-10.1-5.7-10.3-8.8 -0.9-0.8-1.6-1.8-2.1-2.7 -0.2 0.7 1.3 24.1 1.3 24.1h4.8l-0.1-13c4.2 2.6 10.3 4.7 17.5 6l1.1 15.8h4.8l1.2-14.8c3.1 0.3 6.3 0.5 9.6 0.5 3.2 0 6.3-0.2 9.3-0.4l1 14.8h4.8l1.3-15.7c7.3-1.3 13.5-3.4 17.8-6.1l-0.1 12.8h4.8C-339.8 304-338.2 280.9-338.4 280.3z"/><path d="M-361.5 266.3l0.9-8.8c0.2-1.6 1.5-2.7 3.1-2.7l15.3 0c1.6 0 3 1.2 3.1 2.8 0-1.1 0.6 8.5 0.8 17.3 0 0.1 0 0.2 0 0.4 -0.5 3.1-1.7 7.1-8 9.2 -3.8 1.2-4.6-1.8-3.2-3.6 1.4-1.8 2.7-3.2 3.6-4.4 0.8-1.2 0.6-4.5 0.6-4.9 -1.1-0.7-3-1.4-3.9-1.8C-352.8 268.2-357 267.1-361.5 266.3z"/><path d="M-410.2 274.4c1-0.5 2.1-1 3.4-1.5 7.5-3 17.5-4.6 28.1-4.6s20.6 1.6 28.1 4.6c1.3 0.5 2.5 1 3.5 1.6v-2.1c-7.5-3.7-18.9-6-31.6-6 -12.7 0-24 2.3-31.5 5.9C-410.2 272.3-410.2 274.4-410.2 274.4z"/><polygon points="-372.2 276 -384.2 276 -384.4 277.3 -372 277.3 "/><polygon points="-371 284.6 -385.3 284.6 -385.5 285.9 -370.8 285.9 "/><polygon points="-371.6 280.3 -384.8 280.3 -384.9 281.6 -371.4 281.6 "/><path d="M-367.2 290.6h-21.9l2.5-18.4h16.9L-367.2 290.6zM-387.2 288.8h17.9l-2-14.9h-13.9L-387.2 288.8z"/><polygon points="-391.3 284.8 -389.8 273.3 -392.5 273.3 -394 284.8 -392.9 287.3 "/><path d="M-410.1 252.4L-410.1 252.4c-1.5-1-2.3-2.5-2.3-4.2v-3.6c-1.9-1.5-3-3.8-3-6.2 0-4.4 3.6-8 8-8s8 3.6 8 8c0 2.4-1.1 4.7-3 6.2v3.6c0 1.7-0.8 3.2-2.3 4.2l-0.1 0H-410.1zM-404.3 244.6v-0.9l0.4-0.3c1.6-1.1 2.6-3 2.6-5 0-3.4-2.7-6.1-6.1-6.1s-6.1 2.7-6.1 6.1c0 2 1 3.8 2.6 5l0.4 0.3v0.9H-404.3z"/><path d="M-407.3 228.5c0.4 0 0.8 0 1.1 0.1V223h-1.9v5.5C-407.9 228.5-407.6 228.5-407.3 228.5z"/><path d="M-413.5 230.6l-3.9-3.9 -1.4 1.4 3.9 3.9C-414.4 231.4-414 231-413.5 230.6z"/><path d="M-399.6 232.2l3.9-3.9 -1.4-1.4 -3.8 3.8C-400.4 231.2-400 231.7-399.6 232.2z"/><path d="M-417.2 238.4c0-0.4 0-0.8 0.1-1.2h-5.5v1.9h5.5C-417.2 238.8-417.2 238.6-417.2 238.4z"/><path d="M-397.5 237.6c0 0.2 0 0.5 0 0.7 0 0.4 0 0.8-0.1 1.2h5.4v-1.9C-392.1 237.6-397.5 237.6-397.5 237.6z"/><path d="M-415.1 244.5l-2.9 2.9 1.4 1.4 2.9-2.9C-414.3 245.4-414.7 245-415.1 244.5z"/><path d="M-401.3 246.2l2.6 2.6 1.4-1.4 -2.5-2.5C-400.4 245.4-400.8 245.8-401.3 246.2z"/><path d="M-352.6 252.4L-352.6 252.4c-1.5-1-2.3-2.5-2.3-4.2v-3.6c-1.9-1.5-3-3.8-3-6.2 0-4.4 3.6-8 8-8 4.4 0 8 3.6 8 8 0 2.4-1.1 4.7-3 6.2v3.6c0 1.7-0.8 3.2-2.3 4.2l-0.1 0H-352.6zM-346.8 244.6v-0.9l0.4-0.3c1.6-1.1 2.6-3 2.6-5 0-3.4-2.7-6.1-6.1-6.1s-6.1 2.7-6.1 6.1c0 2 1 3.8 2.6 5l0.4 0.3v0.9H-346.8z"/><path d="M-349.8 228.5c0.4 0 0.8 0 1.1 0.1V223h-1.9v5.5C-350.4 228.5-350.1 228.5-349.8 228.5z"/><path d="M-356 230.6l-3.9-3.9 -1.4 1.4 3.9 3.9C-356.9 231.4-356.5 231-356 230.6z"/><path d="M-342.1 232.2l3.9-3.9 -1.4-1.4 -3.8 3.8C-342.9 231.2-342.5 231.7-342.1 232.2z"/><path d="M-359.7 238.4c0-0.4 0-0.8 0.1-1.2h-5.5v1.9h5.5C-359.7 238.8-359.7 238.6-359.7 238.4z"/><path d="M-340 237.6c0 0.2 0 0.5 0 0.7 0 0.4 0 0.8-0.1 1.2h5.4v-1.9C-334.6 237.6-340 237.6-340 237.6z"/><path d="M-357.6 244.5l-2.9 2.9 1.4 1.4 2.9-2.9C-356.8 245.4-357.2 245-357.6 244.5z"/><path d="M-343.8 246.2l2.6 2.6 1.4-1.4 -2.5-2.5C-342.9 245.4-343.3 245.8-343.8 246.2z"/></svg>