<svg xmlns="http://www.w3.org/2000/svg" viewBox="-439 251 48 48"><path d="M-426 251v3h-3v4h-10v41h10.8l1.5-4h23.3l1.5 4h10.8v-41h-26.5v-7H-426zM-425 252h6.5v6h-1v-4h-5.5V252zM-428 255h2v3h-2V255zM-425 255h4.5v3h-4.5V255zM-438 259h9 1 7.5 1 1 1 25.5v39h-9.2l-1.5-4h-24.7l-1.5 4h-9.2V259zM-436 261v1h1v-1H-436zM-415.5 261v1h1v-1H-415.5zM-395 261v1h1v-1H-395zM-434 263v3 3 20h22v-2 -3 -2h16v-13 -3 -3h-7.5 -1 -1 -1H-434zM-433 264h26.5v1h-1.5v1h-25V264zM-405.5 264h1v1h-1V264zM-403.5 264h6.5v2h-5v-1h-1.5V264zM-407 266h0.5 1 1 1 0.5v3h-4V266zM-433 267h25v1h-25V267zM-402 267h5v1h-5V267zM-433 269h25v1h1v1.8l2 1.3 2-1.3V270h1v-1h5v12h-11v-5.5c0-1.9-1.6-3.5-3.5-3.5h-5.5v12h-1v-12h-8v3h5v2h-5v3h5v2h-5v2h-5v3h2v1h-4V269zM-406 270h2v1.2l-1 0.7 -1-0.7V270zM-436 270v1h1v-1H-436zM-395 270v1h1v-1H-395zM-425 273h6v11h-6v-1h5v-4h-5v-1h5v-4h-5V273zM-416 273h4.5c1.4 0 2.5 1.1 2.5 2.5v5.5h-1v-5.5c0-0.8-0.7-1.5-1.5-1.5h-3.5v9h2v1h-3V273zM-414 275h2.5c0.3 0 0.5 0.2 0.5 0.5v5.5h-2v1h-1V275zM-436 279v1h1v-1H-436zM-395 279v1h1v-1H-395zM-411 283v9h15v-9H-411zM-410 284h13v7h-13V284zM-430 285h4 8 5v1h-17V285zM-409 285v5h5v-5H-409zM-403 285v1h2v-1H-403zM-400 285v1h2v-1H-400zM-408 286h3v3h-3V286zM-428 287h8v1h-8V287zM-419 287h6v1h-6V287zM-403 287v1h2v-1H-403zM-400 287v1h2v-1H-400zM-436 288v1h1v-1H-436zM-395 288v1h1v-1H-395zM-403 289v1h2v-1H-403zM-400 289v1h2v-1H-400z"/></svg>