<svg xmlns="http://www.w3.org/2000/svg" viewBox="-425.7 254 93.3 43"><style type="text/css">  
	.st0{fill:none;}
</style><path class="st0" d="M-404.1 272.5l3.3 3.3c1.5-1.8 2.4-4.2 2.4-6.8 0-2.6-0.9-4.9-2.4-6.8l-3.3 3.3C-402.6 267.6-402.6 270.4-404.1 272.5z"/><path class="st0" d="M-405.5 264.1l3.3-3.3c-1.8-1.5-4.2-2.4-6.8-2.4 -2.6 0-4.9 0.9-6.8 2.4l3.3 3.3C-410.4 262.6-407.6 262.6-405.5 264.1z"/><path class="st0" d="M-345.5 264.1l3.3-3.3c-1.8-1.5-4.2-2.4-6.8-2.4 -2.6 0-4.9 0.9-6.8 2.4l3.3 3.3C-350.4 262.6-347.6 262.6-345.5 264.1z"/><path class="st0" d="M-413.9 265.5l-3.3-3.3c-1.5 1.8-2.4 4.2-2.4 6.8s0.9 4.9 2.4 6.8l3.3-3.3C-415.4 270.4-415.4 267.6-413.9 265.5z"/><path class="st0" d="M-405.5 273.9c-2.1 1.5-4.9 1.5-6.9 0l-3.3 3.3c1.8 1.5 4.2 2.4 6.8 2.4s4.9-0.9 6.8-2.4L-405.5 273.9z"/><path class="st0" d="M-353.9 265.5l-3.3-3.3c-1.5 1.8-2.4 4.2-2.4 6.8s0.9 4.9 2.4 6.8l3.3-3.3C-355.4 270.4-355.4 267.6-353.9 265.5z"/><path class="st0" d="M-344.1 265.5c1.5 2.1 1.5 4.9 0 6.9l3.3 3.3c1.5-1.8 2.4-4.2 2.4-6.8 0-2.6-0.9-4.9-2.4-6.8L-344.1 265.5z"/><path class="st0" d="M-352.5 273.9l-3.3 3.3c1.8 1.5 4.2 2.4 6.8 2.4 2.6 0 4.9-0.9 6.8-2.4l-3.3-3.3C-347.6 275.4-350.4 275.4-352.5 273.9z"/><polygon class="st0" points="-376.4 274 -388 274 -388 279 -376.4 279 -374.2 279 -370 279 -370 274 -374.2 274 "/><polygon class="st0" points="-365.2 274 -368 274 -368 279 -360 279 "/><polygon class="st0" points="-397.9 279 -390 279 -390 274 -392.6 274 "/><path d="M-355 280.8l-10-8.8H-393l-10 8.8v1.2h48V280.8zM-390 279h-7.9l5.2-5h2.6V279zM-370 279h-4.2 -2.1H-388v-5h11.6 2.1 4.2V279zM-368 274h2.8l5.2 5h-8V274z"/><path d="M-346.6 283h-8.4 -48 -8.4c-4.6 0-14.3 3.3-14.3 7 0 4.8 1.8 7 5.5 7h19.1 44.1 19.1c3.8 0 5.5-2.2 5.5-7C-332.3 286.3-342 283-346.6 283z"/><path class="st0" d="M-345.5 273.9c-2.1 1.5-4.9 1.5-6.9 0l-3.3 3.3c1.8 1.5 4.2 2.4 6.8 2.4 2.6 0 4.9-0.9 6.8-2.4L-345.5 273.9z"/><path class="st0" d="M-353.9 265.5l-3.3-3.3c-1.5 1.8-2.4 4.2-2.4 6.8s0.9 4.9 2.4 6.8l3.3-3.3C-355.4 270.4-355.4 267.6-353.9 265.5z"/><path class="st0" d="M-345.5 264.1l3.3-3.3c-1.8-1.5-4.2-2.4-6.8-2.4 -2.6 0-4.9 0.9-6.8 2.4l3.3 3.3C-350.4 262.6-347.6 262.6-345.5 264.1z"/><path class="st0" d="M-344.1 272.5l3.3 3.3c1.5-1.8 2.4-4.2 2.4-6.8 0-2.6-0.9-4.9-2.4-6.8l-3.3 3.3C-342.6 267.6-342.6 270.4-344.1 272.5z"/><path d="M-342.6 282.5c1.5-0.7 2.9-1.7 4.2-2.9 5.9-5.9 5.9-15.4 0-21.2s-15.4-5.9-21.2 0c-3.6 3.6-5 8.5-4.2 13.2l9.8 8.4v2h7.4C-345.5 282-344.1 282.2-342.6 282.5zM-338.4 269c0 2.6-0.9 4.9-2.4 6.8l-3.3-3.3c1.5-2.1 1.5-4.9 0-6.9l3.3-3.3C-339.3 264.1-338.4 266.4-338.4 269zM-349 258.4c2.6 0 4.9 0.9 6.8 2.4l-3.3 3.3c-2.1-1.5-4.9-1.5-6.9 0l-3.3-3.3C-353.9 259.3-351.6 258.4-349 258.4zM-359.6 269c0-2.6 0.9-4.9 2.4-6.8l3.3 3.3c-1.5 2.1-1.5 4.9 0 6.9l-3.3 3.3C-358.7 273.9-359.6 271.6-359.6 269zM-355.8 277.2l3.3-3.3c2.1 1.5 4.9 1.5 6.9 0l3.3 3.3c-1.8 1.5-4.2 2.4-6.8 2.4C-351.6 279.6-353.9 278.7-355.8 277.2z"/><path class="st0" d="M-413.9 265.5l-3.3-3.3c-1.5 1.8-2.4 4.2-2.4 6.8s0.9 4.9 2.4 6.8l3.3-3.3C-415.4 270.4-415.4 267.6-413.9 265.5z"/><path class="st0" d="M-405.5 264.1l3.3-3.3c-1.8-1.5-4.2-2.4-6.8-2.4 -2.6 0-4.9 0.9-6.8 2.4l3.3 3.3C-410.4 262.6-407.6 262.6-405.5 264.1z"/><path class="st0" d="M-404.1 272.5l3.3 3.3c1.5-1.8 2.4-4.2 2.4-6.8 0-2.6-0.9-4.9-2.4-6.8l-3.3 3.3C-402.6 267.6-402.6 270.4-404.1 272.5z"/><path class="st0" d="M-405.5 273.9c-2.1 1.5-4.9 1.5-6.9 0l-3.3 3.3c1.8 1.5 4.2 2.4 6.8 2.4s4.9-0.9 6.8-2.4L-405.5 273.9z"/><path d="M-394.2 271.6c0.8-4.6-0.6-9.6-4.2-13.2 -5.9-5.9-15.4-5.9-21.2 0 -5.9 5.9-5.9 15.4 0 21.2 1.2 1.2 2.7 2.2 4.2 2.9 1.5-0.3 3-0.5 4-0.5h7.4v-2L-394.2 271.6zM-398.4 269c0 2.6-0.9 4.9-2.4 6.8l-3.3-3.3c1.5-2.1 1.5-4.9 0-6.9l3.3-3.3C-399.3 264.1-398.4 266.4-398.4 269zM-409 258.4c2.6 0 4.9 0.9 6.8 2.4l-3.3 3.3c-2.1-1.5-4.9-1.5-6.9 0l-3.3-3.3C-413.9 259.3-411.6 258.4-409 258.4zM-419.6 269c0-2.6 0.9-4.9 2.4-6.8l3.3 3.3c-1.5 2.1-1.5 4.9 0 6.9l-3.3 3.3C-418.7 273.9-419.6 271.6-419.6 269zM-415.8 277.2l3.3-3.3c2.1 1.5 4.9 1.5 6.9 0l3.3 3.3c-1.8 1.5-4.2 2.4-6.8 2.4S-413.9 278.7-415.8 277.2z"/></svg>