<svg xmlns="http://www.w3.org/2000/svg" viewBox="-424 235.4 90 65.3"><style type="text/css">  
	.st0{fill:none;}
</style><rect x="-417.2" y="243.6" transform="matrix(0.4882 0.8727 -0.8727 0.4882 -0.1701 488.618)" class="st0" width="1.1" height="1.1"/><path class="st0" d="M-395 262.9c0-0.2 0.1-0.5 0.1-0.8l-0.4 0.2L-395 262.9z"/><rect x="-396.1" y="260.2" transform="matrix(0.4882 0.8727 -0.8727 0.4882 25.1559 478.6656)" class="st0" width="1.1" height="1.1"/><rect x="-396.3" y="255.6" transform="matrix(0.4882 0.8727 -0.8727 0.4882 21.0141 476.4871)" class="st0" width="1.1" height="1.1"/><path class="st0" d="M-396.2 252.3l0.5-0.3c-0.1-0.4-0.2-0.7-0.3-1.1l-0.8 0.4L-396.2 252.3z"/><path class="st0" d="M-395.2 254.1L-395.2 254.1c-0.1-0.4-0.1-0.8-0.2-1.1l-0.3 0.2L-395.2 254.1z"/><rect x="-399.5" y="266.9" transform="matrix(-0.8727 0.4882 -0.4882 -0.8727 -616.5582 695.5624)" class="st0" width="1.1" height="1.1"/><path class="st0" d="M-398.7 269l0.2 0.4c0.3-0.2 0.6-0.4 0.8-0.7l-0.1-0.2L-398.7 269z"/><path class="st0" d="M-376 296.6c-0.2 0.2-0.3 0.4-0.5 0.7 -0.2 0.2-0.3 0.6-0.2 0.9 0.1 0.3 0.3 0.6 0.5 0.7l1.2 0.7c0.3 0.2 0.6 0.2 0.9 0.1 0.3-0.1 0.5-0.4 0.6-0.7 0-0.1 0-0.1 0.1-0.2C-374.4 298.2-375.3 297.5-376 296.6z"/><rect x="-397.7" y="265.9" transform="matrix(0.4881 0.8728 -0.8728 0.4881 29.2289 482.9906)" class="st0" width="1.1" height="1.1"/><path class="st0" d="M-402 241.3c-0.2-0.1-0.3-0.2-0.5-0.4l0.3 0.5L-402 241.3z"/><rect x="-404.4" y="241.2" transform="matrix(0.8727 -0.4882 0.4882 0.8727 -169.3869 -166.3846)" class="st0" width="1.1" height="1.1"/><rect x="-403.4" y="243" transform="matrix(0.8727 -0.4882 0.4882 0.8727 -170.1592 -165.6717)" class="st0" width="1.1" height="1.1"/><path class="st0" d="M-404.1 240.1l-0.2-0.4c-0.2-0.1-0.4-0.2-0.7-0.4l-0.6 0.3 0.5 0.9L-404.1 240.1z"/><rect x="-407.2" y="240.4" transform="matrix(0.8727 -0.4882 0.4882 0.8727 -169.3764 -167.8703)" class="st0" width="1.1" height="1.1"/><rect x="-408.2" y="238.6" transform="matrix(-0.4883 -0.8727 0.8727 -0.4883 -815.3912 0.1089)" class="st0" width="1.1" height="1.1"/><path class="st0" d="M-400.5 270l0.1 0.2c0.4-0.1 0.7-0.2 1-0.4l-0.2-0.4L-400.5 270z"/><path class="st0" d="M-399.2 246.9l1.2-0.7c-0.2-0.3-0.4-0.6-0.6-0.9l-1.2 0.7L-399.2 246.9z"/><path class="st0" d="M-398.2 248.7l1.2-0.6c-0.2-0.3-0.3-0.6-0.5-1l-1.2 0.7L-398.2 248.7z"/><path class="st0" d="M-397.2 250.5l0.9-0.5c-0.1-0.3-0.3-0.7-0.4-1l-1.1 0.6L-397.2 250.5z"/><path class="st0" d="M-400.5 242.8c-0.3-0.3-0.5-0.5-0.8-0.8l-0.5 0.3 0.5 0.9L-400.5 242.8z"/><path class="st0" d="M-400.2 245.1l1.1-0.6c-0.2-0.3-0.4-0.6-0.7-0.9l-0.9 0.5L-400.2 245.1z"/><rect x="-403.3" y="264.3" transform="matrix(-0.4883 -0.8727 0.8727 -0.4883 -830.5375 42.6481)" class="st0" width="1.1" height="1.1"/><rect x="-413.8" y="258.3" transform="matrix(-0.8727 0.4882 -0.4882 -0.8727 -647.5131 686.4486)" class="st0" width="1.1" height="1.1"/><rect x="-418.6" y="253.9" transform="matrix(-0.4882 -0.8727 0.8727 -0.4882 -844.2097 13.7672)" class="st0" width="1.1" height="1.1"/><rect x="-416.6" y="257.5" transform="matrix(-0.4882 -0.8727 0.8727 -0.4882 -844.3546 20.9059)" class="st0" width="1.1" height="1.1"/><rect x="-415.6" y="259.3" transform="matrix(-0.4882 -0.8727 0.8727 -0.4882 -844.4264 24.4738)" class="st0" width="1.1" height="1.1"/><rect x="-414.6" y="261.1" transform="matrix(-0.4881 -0.8728 0.8728 -0.4881 -844.4722 27.9789)" class="st0" width="1.1" height="1.1"/><rect x="-417.6" y="255.7" transform="matrix(-0.4882 -0.8727 0.8727 -0.4882 -844.2811 17.3369)" class="st0" width="1.1" height="1.1"/><rect x="-419" y="244.6" transform="matrix(0.4881 0.8728 -0.8728 0.4881 -0.2453 490.7653)" class="st0" width="1.1" height="1.1"/><rect x="-418" y="246.4" transform="matrix(0.8727 -0.4882 0.4882 0.8727 -173.6936 -172.3776)" class="st0" width="1.1" height="1.1"/><rect x="-402.3" y="266.1" transform="matrix(-0.4883 -0.8727 0.8727 -0.4883 -830.6099 46.2174)" class="st0" width="1.1" height="1.1"/><rect x="-420.6" y="250.3" transform="matrix(0.8727 -0.4883 0.4883 0.8727 -175.9509 -173.1936)" class="st0" width="1.1" height="1.1"/><rect x="-419.8" y="247.5" transform="matrix(0.8727 -0.4882 0.4882 0.8727 -174.4388 -173.1418)" class="st0" width="1.1" height="1.1"/><rect x="-419.6" y="252.1" transform="matrix(-0.4882 -0.8727 0.8727 -0.4882 -844.1369 10.1985)" class="st0" width="1.1" height="1.1"/><rect x="-407.1" y="261.7" transform="matrix(-0.8727 0.4882 -0.4882 -0.8727 -633.4148 689.5656)" class="st0" width="1.1" height="1.1"/><rect x="-406.1" y="263.5" transform="matrix(-0.4882 -0.8727 0.8727 -0.4882 -834.0109 38.9641)" class="st0" width="1.1" height="1.1"/><rect x="-404.3" y="262.5" transform="matrix(-0.8727 0.4882 -0.4882 -0.8727 -627.7546 689.6793)" class="st0" width="1.1" height="1.1"/><rect x="-412.8" y="260.1" transform="matrix(-0.4882 -0.8727 0.8727 -0.4882 -840.9316 28.1107)" class="st0" width="1.1" height="1.1"/><rect x="-405.1" y="265.3" transform="matrix(-0.4882 -0.8727 0.8727 -0.4882 -834.0852 42.5317)" class="st0" width="1.1" height="1.1"/><rect x="-407.9" y="264.5" transform="matrix(-0.4882 -0.8727 0.8727 -0.4882 -837.5764 38.8971)" class="st0" width="1.1" height="1.1"/><rect x="-411.8" y="261.9" transform="matrix(-0.4883 -0.8727 0.8727 -0.4883 -841.026 31.7225)" class="st0" width="1.1" height="1.1"/><rect x="-410.7" y="263.7" transform="matrix(-0.4882 -0.8727 0.8727 -0.4882 -841.0769 35.2497)" class="st0" width="1.1" height="1.1"/><rect x="-408.9" y="262.7" transform="matrix(-0.4882 -0.8727 0.8727 -0.4882 -837.5066 35.324)" class="st0" width="1.1" height="1.1"/><rect x="-409.9" y="260.9" transform="matrix(-0.8727 0.4882 -0.4882 -0.8727 -639.0781 689.4526)" class="st0" width="1.1" height="1.1"/><path class="st0" d="M-395 258.7l0.3-0.2c0-0.4 0-0.8-0.1-1.2l-0.7 0.4L-395 258.7z"/><rect x="-405.9" y="268.1" transform="matrix(-0.8727 0.4882 -0.4882 -0.8727 -627.9969 700.9982)" class="st0" width="1.1" height="1.1"/><path class="st0" d="M-404.8 270.1c0.3 0.1 0.6 0.1 0.9 0.2l-0.3-0.6L-404.8 270.1z"/><rect x="-404.1" y="267.1" transform="matrix(-0.8727 0.4882 -0.4882 -0.8727 -625.096 698.2296)" class="st0" width="1.1" height="1.1"/><path class="st0" d="M-408.8 238C-408.9 238-408.9 238-408.8 238L-408.8 238 -408.8 238z"/><rect x="-406.9" y="266.3" transform="matrix(-0.8727 0.4882 -0.4882 -0.8727 -630.7584 698.1156)" class="st0" width="1.1" height="1.1"/><rect x="-408.7" y="267.3" transform="matrix(0.4882 0.8727 -0.8727 0.4882 24.8601 493.3141)" class="st0" width="1.1" height="1.1"/><path class="st0" d="M-411.6 266.7c0.3 0.2 0.7 0.5 1 0.7l0.3-0.2 -0.5-0.9L-411.6 266.7z"/><rect x="-413.6" y="262.9" transform="matrix(-0.8727 0.4882 -0.4882 -0.8727 -644.8546 694.9954)" class="st0" width="1.1" height="1.1"/><path class="st0" d="M-407.4 269.2c0.2 0.1 0.5 0.2 0.7 0.3l-0.3-0.5L-407.4 269.2z"/><rect x="-409.7" y="265.5" transform="matrix(-0.8727 0.4882 -0.4882 -0.8727 -636.4186 697.9976)" class="st0" width="1.1" height="1.1"/><path class="st0" d="M-402.1 271.9c1.5 0 2.8-0.3 3.9-1 2.3-1.3 3.7-3.8 4.5-6.9 0.1-0.4 0.1-0.6 0.1-0.7 0 0 0 0 0 0 1-5.5-0.1-12.5-3-17.7 -3.2-5.7-8.8-9.4-14.4-9.4 -2.1 0-4 0.5-5.7 1.5 -3.2 1.8-5.3 5-6.1 9 -0.7 4 0.1 8.4 2.3 12.3 3 5.3 8.4 9.9 13.5 11.8 0 0 0 0 0 0 0 0 0.1 0 0.2 0.1C-405.2 271.6-403.6 271.9-402.1 271.9L-402.1 271.9zM-405.8 270.8c-0.1 0-0.2-0.1-0.2-0.1 -0.1 0-0.2 0-0.2-0.1 -0.8-0.3-1.5-0.6-2.3-1 -0.1 0-0.1 0-0.2-0.1 0 0 0 0 0 0 -0.1 0-0.1 0-0.2-0.1 -0.6-0.3-1.2-0.6-1.8-1 0 0-0.1 0-0.1-0.1 -0.6-0.4-1.1-0.7-1.7-1.2 0 0-0.1 0-0.1-0.1 -2.4-1.8-4.5-3.9-6.2-6.3 0 0 0 0 0 0 0 0 0 0 0 0 -0.4-0.6-0.8-1.1-1.1-1.7 0 0 0 0 0 0 0 0 0 0 0 0 0 0-0.1-0.1-0.1-0.1 -0.3-0.6-0.6-1.1-0.8-1.7 0 0 0 0 0 0 0 0 0-0.1 0-0.1 -0.3-0.6-0.5-1.2-0.7-1.9 0 0 0 0 0 0 0-0.1-0.1-0.1-0.1-0.2 -0.2-0.7-0.4-1.4-0.5-2 0 0 0 0 0 0 -0.1-0.7-0.2-1.4-0.3-2.1 0-0.1 0-0.1 0-0.2 0-0.4 0-0.7 0-1.1 0-0.1 0-0.1 0-0.2 0-0.4 0-0.7 0.1-1.1 0 0 0 0 0-0.1 0.1-0.7 0.2-1.5 0.4-2.2 0 0 0-0.1 0-0.1 0-0.1 0-0.2 0.1-0.3 0 0 0 0 0-0.1 0.2-0.8 0.5-1.5 0.8-2.2 0-0.1 0-0.1 0.1-0.1 0.1-0.3 0.3-0.5 0.4-0.8 0-0.1 0.1-0.1 0.1-0.2 0.2-0.3 0.4-0.7 0.7-1 0-0.1 0.1-0.1 0.1-0.1 0.4-0.5 0.9-1 1.4-1.5 0-0.1 0.1-0.1 0.2-0.1 0 0 0 0 0 0 0.5-0.4 1.1-0.8 1.7-1.2 0.6-0.3 1.2-0.6 1.9-0.8 0 0 0 0 0 0 0.1 0 0.1-0.1 0.2-0.1 0.7-0.2 1.4-0.4 2.1-0.4 0 0 0.1 0 0.1 0 0.4 0 0.8-0.1 1.2-0.1 1.2 0 2.4 0.2 3.6 0.5 0 0 0.1 0 0.1 0 0.1 0 0.2 0.1 0.3 0.1 0 0 0 0 0 0 0.8 0.2 1.5 0.5 2.2 0.9 0 0 0.1 0 0.1 0 0.3 0.2 0.6 0.3 0.9 0.5 0 0 0.1 0 0.1 0.1 0.3 0.2 0.6 0.4 0.9 0.6 0 0 0.1 0 0.1 0.1 0.6 0.4 1.1 0.8 1.7 1.3 0 0 0.1 0.1 0.1 0.1 0.5 0.5 1 0.9 1.4 1.4 0.1 0 0.1 0.1 0.1 0.2 0 0 0 0 0 0 0.4 0.5 0.8 1 1.2 1.6 0 0 0 0 0 0.1 0 0 0 0 0 0 0.4 0.5 0.7 1 1 1.6 0 0 0 0.1 0.1 0.1 0 0 0 0 0 0 0 0 0 0 0 0 0.3 0.6 0.6 1.2 0.9 1.8 0 0 0 0 0 0 0 0 0 0.1 0 0.1 0.3 0.6 0.5 1.2 0.7 1.8 0 0 0 0 0 0 0 0.1 0.1 0.1 0.1 0.2 0.2 0.7 0.4 1.3 0.6 2 0 0 0 0 0 0 0.4 1.4 0.6 2.9 0.8 4.4 0 0 0 0.1 0 0.1 0.1 0.7 0.1 1.4 0.1 2.1 0 0.1 0 0.1 0 0.2 0 0.3 0 0.6 0 1 0 0.4 0 0.7-0.1 1.1 0 0.1 0 0.2 0 0.2 0 0 0 0 0 0 0 0.1 0 0.1 0 0.2 -0.1 0.9-0.2 1.7-0.4 2.5 0 0.1 0 0.1 0 0.2 0 0.1 0 0.2-0.1 0.2 0 0.1 0 0.2-0.1 0.3 -0.2 0.9-0.5 1.6-0.9 2.4 0 0.1-0.1 0.1-0.1 0.2 -0.4 0.7-0.8 1.4-1.3 1.9 0 0.1-0.1 0.1-0.2 0.2 0 0 0 0 0 0 -0.5 0.5-1 1-1.6 1.3 -0.6 0.4-1.4 0.6-2.1 0.7 0 0-0.1 0-0.1 0 0 0 0 0 0 0 -0.5 0.1-1 0.1-1.5 0.1 -1.1 0-2.4-0.2-3.6-0.6C-405.8 270.8-405.8 270.8-405.8 270.8z"/><rect x="-412.5" y="264.7" transform="matrix(-0.8727 0.4882 -0.4882 -0.8727 -642.081 697.8858)" class="st0" width="1.1" height="1.1"/><path class="st0" d="M-384.6 292.7l-2.1 1.2c0.1 0.3 0.3 0.5 0.4 0.8l2.6-0.6C-384 293.6-384.3 293.2-384.6 292.7z"/><path class="st0" d="M-387.2 288.1C-387.2 288.1-387.2 288.1-387.2 288.1l-2 1.4 0.1 0.3 2.7-0.1L-387.2 288.1z"/><path class="st0" d="M-385.8 290.5c-0.1 0.1-0.2 0.1-0.3 0.1l-2.4 0.1 1.3 2.4 2.1-1.2L-385.8 290.5z"/><path class="st0" d="M-382.7 295.8C-382.6 295.8-382.6 295.8-382.7 295.8c-0.1-0.3-0.3-0.6-0.5-0.8l-2.7 0.6c0.3 0.7 0.7 1.5 0.9 2.2C-384 297.3-383.3 296.6-382.7 295.8z"/><path class="st0" d="M-382 296.6c-0.7 0.9-1.6 1.6-2.6 2.2 0 0.1 0 0.1 0.1 0.2 0.1 0.3 0.3 0.5 0.6 0.7 0.1 0 0.3 0.1 0.4 0.1 0.2 0 0.4 0 0.5-0.1l1.2-0.7c0.3-0.2 0.5-0.4 0.5-0.7 0.1-0.3 0-0.6-0.2-0.9C-381.6 297-381.8 296.8-382 296.6z"/><polygon class="st0" points="-389.5 283.9 -391.3 285.6 -391.1 286.1 -388.6 285.6 "/><polygon class="st0" points="-391.5 280.4 -393.6 281.6 -392.9 282.8 -391.2 280.9 "/><polygon class="st0" points="-390.7 281.8 -392.4 283.7 -391.8 284.7 -390 283 "/><path class="st0" d="M-392.4 279.8c-1.6-4.5-1.8-8.8-1.7-11.8 -0.9 1.6-2 3-3.5 3.8 -1.3 0.7-2.8 1.1-4.4 1.1l0 0c-0.2 0-0.4 0-0.6 0 2.7 1.5 6.2 3.9 9.2 7.6L-392.4 279.8z"/><path class="st0" d="M-387.6 287.3l-0.4-0.8c0 0-0.1 0-0.1 0l-2.4 0.4 0.9 1.6 1.9-1.3C-387.7 287.3-387.7 287.3-387.6 287.3z"/><rect x="-403.1" y="268.9" transform="matrix(-0.8727 0.4882 -0.4882 -0.8727 -622.3248 701.1227)" class="st0" width="1.1" height="1.1"/><path class="st0" d="M-416.2 239.7l-0.2-0.4c-0.3 0.2-0.6 0.4-0.9 0.6l0.2 0.3L-416.2 239.7z"/><path class="st0" d="M-414.4 238.7l-0.2-0.3c-0.3 0.1-0.7 0.3-1 0.4l0.2 0.4L-414.4 238.7z"/><rect x="-416.4" y="240.8" transform="matrix(0.8727 -0.4882 0.4882 0.8727 -170.7624 -172.3286)" class="st0" width="1.1" height="1.1"/><path class="st0" d="M-414.9 263.9c0.3 0.3 0.5 0.5 0.8 0.8l0 0 -0.5-0.9L-414.9 263.9z"/><rect x="-418.2" y="241.8" transform="matrix(-0.4882 -0.8727 0.8727 -0.4882 -833.1407 -3.8596)" class="st0" width="1.1" height="1.1"/><rect x="-410" y="239.6" transform="matrix(0.8727 -0.4882 0.4882 0.8727 -169.3468 -169.3466)" class="st0" width="1.1" height="1.1"/><rect x="-414.6" y="239.8" transform="matrix(0.8727 -0.4882 0.4882 0.8727 -170.0397 -171.5753)" class="st0" width="1.1" height="1.1"/><path class="st0" d="M-418.8 243.6l-0.5-0.9 -0.5 0.3c-0.1 0.2-0.2 0.4-0.3 0.5l0.4 0.7L-418.8 243.6z"/><path class="st0" d="M-409.7 238.5l-0.4-0.7c-0.2 0-0.4 0-0.6 0l-0.5 0.3 0.5 0.9L-409.7 238.5z"/><rect x="-412.8" y="238.8" transform="matrix(-0.4882 -0.8727 0.8727 -0.4882 -822.4357 -3.6424)" class="st0" width="1.1" height="1.1"/><path class="st0" d="M-413.2 238.1c-0.1 0-0.3 0-0.4 0.1l0.1 0.1L-413.2 238.1z"/><path class="st0" d="M-418 240.7c-0.1 0.1-0.2 0.2-0.3 0.3l0.3-0.2L-418 240.7z"/><path class="st0" d="M-417.6 258.3l-1.2 0.7c0.2 0.3 0.4 0.6 0.6 0.9l1.2-0.6L-417.6 258.3z"/><path class="st0" d="M-419.7 254.7l-0.9 0.5c0.1 0.3 0.2 0.7 0.4 1l1.1-0.6L-419.7 254.7z"/><path class="st0" d="M-420.6 244.6C-420.6 244.6-420.6 244.6-420.6 244.6L-420.6 244.6 -420.6 244.6z"/><path class="st0" d="M-416.4 262.3c0.2 0.3 0.5 0.6 0.7 0.8l0.6-0.3 -0.5-0.9L-416.4 262.3z"/><path class="st0" d="M-416.6 260.1l-1.1 0.6c0.2 0.3 0.4 0.6 0.7 0.9l0.9-0.5L-416.6 260.1z"/><path class="st0" d="M-418.7 256.5l-1.2 0.7c0.2 0.3 0.3 0.6 0.5 1l1.2-0.7L-418.7 256.5z"/><path class="st0" d="M-420.4 249.2l-0.5-0.9 -0.6 0.3c0 0.2 0 0.5 0 0.7l0.2 0.4L-420.4 249.2z"/><rect x="-420.8" y="245.6" transform="matrix(-0.4882 -0.8727 0.8727 -0.4882 -840.3516 -0.4376)" class="st0" width="1.1" height="1.1"/><path class="st0" d="M-421.4 251.5c0 0.2 0.1 0.4 0.1 0.6l0.2-0.1L-421.4 251.5z"/><path class="st0" d="M-420.7 252.9l-0.5 0.3c0.1 0.4 0.2 0.7 0.3 1.1l0.8-0.4L-420.7 252.9z"/><path class="st0" d="M-395.8 265.7c0.1-0.3 0.2-0.6 0.3-0.9l-0.6 0.4L-395.8 265.7z"/><rect x="-400.1" y="253" transform="matrix(0.4882 0.8727 -0.8727 0.4882 16.7865 478.4935)" class="st0" width="1.1" height="1.1"/><rect x="-401.1" y="251.2" transform="matrix(0.4882 0.8727 -0.8727 0.4882 14.6933 478.4514)" class="st0" width="1.1" height="1.1"/><rect x="-402.1" y="249.4" transform="matrix(0.4882 0.8727 -0.8727 0.4882 12.5993 478.4101)" class="st0" width="1.1" height="1.1"/><rect x="-405" y="248.6" transform="matrix(0.4882 0.8727 -0.8727 0.4882 10.4505 480.4776)" class="st0" width="1.1" height="1.1"/><rect x="-402.9" y="252.2" transform="matrix(0.8727 -0.4882 0.4882 0.8727 -174.6186 -164.2857)" class="st0" width="1.1" height="1.1"/><rect x="-404" y="250.4" transform="matrix(0.4882 0.8727 -0.8727 0.4882 12.5564 480.5038)" class="st0" width="1.1" height="1.1"/><rect x="-400.9" y="255.8" transform="matrix(-0.4882 -0.8727 0.8727 -0.4882 -819.5851 32.1013)" class="st0" width="1.1" height="1.1"/><rect x="-401.9" y="254" transform="matrix(0.4882 0.8727 -0.8727 0.4882 16.7419 480.5885)" class="st0" width="1.1" height="1.1"/><rect x="-399.1" y="254.8" transform="matrix(-0.8727 0.4882 -0.4882 -0.8727 -621.7606 672.8022)" class="st0" width="1.1" height="1.1"/><rect x="-400.7" y="260.5" transform="matrix(-0.4883 -0.8727 0.8727 -0.4883 -823.3251 39.2232)" class="st0" width="1.1" height="1.1"/><rect x="-401.7" y="258.6" transform="matrix(-0.4882 -0.8727 0.8727 -0.4882 -823.2309 35.6145)" class="st0" width="1.1" height="1.1"/><rect x="-412.4" y="248" transform="matrix(0.8727 -0.4882 0.4882 0.8727 -173.7742 -169.4366)" class="st0" width="1.1" height="1.1"/><rect x="-411.6" y="245.2" transform="matrix(0.4882 0.8727 -0.8727 0.4882 4.087 484.5351)" class="st0" width="1.1" height="1.1"/><rect x="-410.6" y="247" transform="matrix(0.4881 0.8728 -0.8728 0.4881 6.162 484.6136)" class="st0" width="1.1" height="1.1"/><rect x="-402.7" y="256.8" transform="matrix(-0.4883 -0.8727 0.8727 -0.4883 -823.1806 32.0854)" class="st0" width="1.1" height="1.1"/><rect x="-406" y="246.8" transform="matrix(0.4882 0.8727 -0.8727 0.4882 8.3704 480.4187)" class="st0" width="1.1" height="1.1"/><rect x="-413.4" y="246.2" transform="matrix(0.4882 0.8727 -0.8727 0.4882 4.0568 486.6113)" class="st0" width="1.1" height="1.1"/><rect x="-414.2" y="249" transform="matrix(0.8727 -0.4883 0.4883 0.8727 -174.5343 -170.2115)" class="st0" width="1.1" height="1.1"/><rect x="-409.6" y="248.8" transform="matrix(0.8727 -0.4882 0.4882 0.8727 -173.8046 -167.9605)" class="st0" width="1.1" height="1.1"/><rect x="-406.8" y="249.6" transform="matrix(0.8727 -0.4883 0.4883 0.8727 -173.8714 -166.506)" class="st0" width="1.1" height="1.1"/><rect x="-407.8" y="247.8" transform="matrix(0.4882 0.8727 -0.8727 0.4882 8.3298 482.5096)" class="st0" width="1.1" height="1.1"/><rect x="-408.8" y="246" transform="matrix(0.4882 0.8727 -0.8727 0.4882 6.2367 482.4669)" class="st0" width="1.1" height="1.1"/><rect x="-404.7" y="253.2" transform="matrix(-0.8727 0.4882 -0.4882 -0.8727 -633.0717 672.5842)" class="st0" width="1.1" height="1.1"/><rect x="-418.8" y="249.3" transform="matrix(0.4882 0.8727 -0.8727 0.4882 3.9305 492.8889)" class="st0" width="1.1" height="1.1"/><rect x="-399.9" y="257.6" transform="matrix(0.4882 0.8727 -0.8727 0.4882 20.9291 480.6724)" class="st0" width="1.1" height="1.1"/><rect x="-398.9" y="259.4" transform="matrix(-0.4882 -0.8727 0.8727 -0.4882 -819.7357 39.2563)" class="st0" width="1.1" height="1.1"/><rect x="-412.2" y="252.7" transform="matrix(-0.4882 -0.8727 0.8727 -0.4882 -833.576 17.5529)" class="st0" width="1.1" height="1.1"/><rect x="-413.2" y="250.8" transform="matrix(0.4882 0.8727 -0.8727 0.4882 8.2022 488.7873)" class="st0" width="1.1" height="1.1"/><rect x="-411.4" y="249.8" transform="matrix(-0.4882 -0.8727 0.8727 -0.4882 -829.9279 14.0399)" class="st0" width="1.1" height="1.1"/><rect x="-401.3" y="267.9" transform="matrix(-0.8727 0.4882 -0.4882 -0.8727 -619.4362 698.3481)" class="st0" width="1.1" height="1.1"/><rect x="-397.9" y="261.3" transform="matrix(0.4882 0.8727 -0.8727 0.4882 25.1157 480.7577)" class="st0" width="1.1" height="1.1"/><rect x="-417.8" y="251.1" transform="matrix(-0.4882 -0.8727 0.8727 -0.4882 -840.5677 10.272)" class="st0" width="1.1" height="1.1"/><rect x="-396.9" y="263.1" transform="matrix(-0.4882 -0.8727 0.8727 -0.4882 -819.8786 46.3947)" class="st0" width="1.1" height="1.1"/><rect x="-416.2" y="245.4" transform="matrix(0.8727 -0.4882 0.4882 0.8727 -172.992 -171.6354)" class="st0" width="1.1" height="1.1"/><rect x="-405.8" y="251.4" transform="matrix(-0.4883 -0.8727 0.8727 -0.4883 -822.9636 21.3787)" class="st0" width="1.1" height="1.1"/><rect x="-406.6" y="254.2" transform="matrix(-0.4882 -0.8727 0.8727 -0.4882 -826.576 24.8183)" class="st0" width="1.1" height="1.1"/><rect x="-405.5" y="256" transform="matrix(-0.4882 -0.8727 0.8727 -0.4882 -826.6545 28.4042)" class="st0" width="1.1" height="1.1"/><rect x="-403.7" y="255" transform="matrix(-0.4883 -0.8727 0.8727 -0.4883 -823.1087 28.5157)" class="st0" width="1.1" height="1.1"/><rect x="-407.6" y="252.4" transform="matrix(-0.8727 0.4882 -0.4882 -0.8727 -638.7322 672.4646)" class="st0" width="1.1" height="1.1"/><rect x="-409.4" y="253.4" transform="matrix(-0.4882 -0.8727 0.8727 -0.4882 -830.0806 21.1911)" class="st0" width="1.1" height="1.1"/><rect x="-408.4" y="255.3" transform="matrix(-0.4882 -0.8727 0.8727 -0.4882 -830.1534 24.7612)" class="st0" width="1.1" height="1.1"/><rect x="-411.2" y="254.5" transform="matrix(-0.4882 -0.8727 0.8727 -0.4882 -833.6467 21.1226)" class="st0" width="1.1" height="1.1"/><rect x="-410.4" y="251.6" transform="matrix(-0.8727 0.4882 -0.4882 -0.8727 -644.395 672.3547)" class="st0" width="1.1" height="1.1"/><rect x="-408.6" y="250.6" transform="matrix(-0.4883 -0.8727 0.8727 -0.4883 -826.4603 17.7362)" class="st0" width="1.1" height="1.1"/><rect x="-415" y="251.9" transform="matrix(0.4882 0.8727 -0.8727 0.4882 8.159 490.8804)" class="st0" width="1.1" height="1.1"/><rect x="-403.2" y="247.6" transform="matrix(0.8727 -0.4882 0.4882 0.8727 -172.3891 -164.9783)" class="st0" width="1.1" height="1.1"/><rect x="-402.4" y="244.8" transform="matrix(0.4882 0.8727 -0.8727 0.4882 8.4576 476.2307)" class="st0" width="1.1" height="1.1"/><rect x="-405.2" y="244" transform="matrix(0.4882 0.8727 -0.8727 0.4882 6.3208 478.2817)" class="st0" width="1.1" height="1.1"/><rect x="-404.2" y="245.8" transform="matrix(0.4882 0.8727 -0.8727 0.4882 8.4145 478.3239)" class="st0" width="1.1" height="1.1"/><rect x="-401.3" y="246.6" transform="matrix(0.4882 0.8727 -0.8727 0.4882 10.5504 476.2738)" class="st0" width="1.1" height="1.1"/><rect x="-399.3" y="250.2" transform="matrix(0.4882 0.8727 -0.8727 0.4882 14.7349 476.3597)" class="st0" width="1.1" height="1.1"/><rect x="-397.3" y="253.8" transform="matrix(-0.8727 0.4882 -0.4882 -0.8727 -618.8603 670.0391)" class="st0" width="1.1" height="1.1"/><rect x="-415.2" y="247.2" transform="matrix(0.4883 0.8727 -0.8727 0.4883 4.0351 488.6653)" class="st0" width="1.1" height="1.1"/><rect x="-406.2" y="242.2" transform="matrix(0.4883 0.8727 -0.8727 0.4883 4.2473 478.2023)" class="st0" width="1.1" height="1.1"/><rect x="-400.3" y="248.4" transform="matrix(0.4881 0.8728 -0.8728 0.4881 12.6122 476.3694)" class="st0" width="1.1" height="1.1"/><rect x="-398.3" y="252" transform="matrix(0.4882 0.8727 -0.8727 0.4882 16.8269 476.4029)" class="st0" width="1.1" height="1.1"/><rect x="-407" y="245" transform="matrix(0.8727 -0.4882 0.4882 0.8727 -171.6053 -167.1775)" class="st0" width="1.1" height="1.1"/><rect x="-412.6" y="243.4" transform="matrix(0.8727 -0.4882 0.4882 0.8727 -171.5456 -170.1291)" class="st0" width="1.1" height="1.1"/><rect x="-413.6" y="241.6" transform="matrix(0.4882 0.8727 -0.8727 0.4882 -0.08622856 484.4326)" class="st0" width="1.1" height="1.1"/><rect x="-415.4" y="242.6" transform="matrix(0.4881 0.8728 -0.8728 0.4881 -0.1602 486.5793)" class="st0" width="1.1" height="1.1"/><rect x="-414.4" y="244.4" transform="matrix(0.8727 -0.4882 0.4882 0.8727 -172.2482 -170.8719)" class="st0" width="1.1" height="1.1"/><rect x="-397.1" y="258.4" transform="matrix(-0.8727 0.4882 -0.4882 -0.8727 -616.202 678.5873)" class="st0" width="1.1" height="1.1"/><rect x="-411.8" y="240.6" transform="matrix(0.4882 0.8727 -0.8727 0.4882 -0.04296138 482.3394)" class="st0" width="1.1" height="1.1"/><rect x="-409" y="241.4" transform="matrix(0.4882 0.8727 -0.8727 0.4882 2.0794 480.3081)" class="st0" width="1.1" height="1.1"/><rect x="-410.8" y="242.4" transform="matrix(0.4883 0.8727 -0.8727 0.4883 2.0706 482.3452)" class="st0" width="1.1" height="1.1"/><rect x="-408" y="243.2" transform="matrix(0.4882 0.8727 -0.8727 0.4882 4.186 480.3322)" class="st0" width="1.1" height="1.1"/><rect x="-409.8" y="244.2" transform="matrix(0.8727 -0.4883 0.4883 0.8727 -171.6119 -168.6749)" class="st0" width="1.1" height="1.1"/><rect x="-398.1" y="256.6" transform="matrix(0.4883 0.8727 -0.8727 0.4883 20.9892 478.5415)" class="st0" width="1.1" height="1.1"/><rect x="-413" y="255.5" transform="matrix(-0.4882 -0.8727 0.8727 -0.4882 -837.2178 21.0445)" class="st0" width="1.1" height="1.1"/><rect x="-412" y="257.3" transform="matrix(-0.4882 -0.8727 0.8727 -0.4882 -837.2894 24.6178)" class="st0" width="1.1" height="1.1"/><rect x="-414" y="253.7" transform="matrix(-0.8727 0.4882 -0.4882 -0.8727 -650.1713 677.9006)" class="st0" width="1.1" height="1.1"/><rect x="-411" y="259.1" transform="matrix(-0.4882 -0.8727 0.8727 -0.4882 -837.3605 28.1868)" class="st0" width="1.1" height="1.1"/><rect x="-410.2" y="256.3" transform="matrix(-0.8727 0.4882 -0.4882 -0.8727 -641.7349 680.9014)" class="st0" width="1.1" height="1.1"/><rect x="-415.8" y="254.7" transform="matrix(-0.4882 -0.8727 0.8727 -0.4882 -840.7128 17.4085)" class="st0" width="1.1" height="1.1"/><rect x="-416" y="250.1" transform="matrix(0.8727 -0.4882 0.4882 0.8727 -175.2207 -170.9424)" class="st0" width="1.1" height="1.1"/><rect x="-417" y="248.2" transform="matrix(0.4881 0.8728 -0.8728 0.4881 3.9405 490.8514)" class="st0" width="1.1" height="1.1"/><rect x="-409.2" y="258.1" transform="matrix(-0.4883 -0.8727 0.8727 -0.4883 -833.816 28.2995)" class="st0" width="1.1" height="1.1"/><rect x="-414.8" y="256.5" transform="matrix(-0.4882 -0.8727 0.8727 -0.4882 -840.7864 20.9753)" class="st0" width="1.1" height="1.1"/><rect x="-416.8" y="252.9" transform="matrix(-0.4882 -0.8727 0.8727 -0.4882 -840.6412 13.8403)" class="st0" width="1.1" height="1.1"/><rect x="-401.5" y="263.3" transform="matrix(-0.4882 -0.8727 0.8727 -0.4882 -826.9419 42.6618)" class="st0" width="1.1" height="1.1"/><rect x="-398.7" y="264.1" transform="matrix(-0.4883 -0.8727 0.8727 -0.4883 -823.4722 46.3596)" class="st0" width="1.1" height="1.1"/><rect x="-402.5" y="261.5" transform="matrix(-0.4882 -0.8727 0.8727 -0.4882 -826.8718 39.1114)" class="st0" width="1.1" height="1.1"/><rect x="-403.5" y="259.7" transform="matrix(-0.4882 -0.8727 0.8727 -0.4882 -826.7955 35.526)" class="st0" width="1.1" height="1.1"/><rect x="-400.5" y="265.1" transform="matrix(-0.4882 -0.8727 0.8727 -0.4882 -827.0186 46.2463)" class="st0" width="1.1" height="1.1"/><rect x="-399.7" y="262.3" transform="matrix(-0.8727 0.4882 -0.4882 -0.8727 -619.2077 687.0284)" class="st0" width="1.1" height="1.1"/><rect x="-405.3" y="260.7" transform="matrix(-0.4882 -0.8727 0.8727 -0.4882 -830.371 35.4667)" class="st0" width="1.1" height="1.1"/><rect x="-404.5" y="257.9" transform="matrix(-0.8727 0.4882 -0.4882 -0.8727 -630.4142 681.1341)" class="st0" width="1.1" height="1.1"/><rect x="-407.3" y="257.1" transform="matrix(-0.8727 0.4882 -0.4882 -0.8727 -636.074 681.0166)" class="st0" width="1.1" height="1.1"/><rect x="-406.3" y="258.9" transform="matrix(-0.4882 -0.8727 0.8727 -0.4882 -830.2967 31.8982)" class="st0" width="1.1" height="1.1"/><rect x="-408.1" y="259.9" transform="matrix(-0.4882 -0.8727 0.8727 -0.4882 -833.8659 31.8248)" class="st0" width="1.1" height="1.1"/><rect x="-351.3" y="247.8" transform="matrix(0.8727 0.4882 -0.4882 0.8727 76.6069 202.8555)" class="st0" width="1.1" height="1.1"/><rect x="-339.5" y="252.1" transform="matrix(-0.8727 -0.4882 0.4882 -0.8727 -758.0303 307.5971)" class="st0" width="1.1" height="1.1"/><path class="st0" d="M-337.9 243.4c-0.1-0.2-0.2-0.4-0.3-0.5l-0.5-0.3 -0.5 0.9 0.9 0.5L-337.9 243.4z"/><rect x="-341.5" y="255.7" transform="matrix(-0.8727 -0.4882 0.4882 -0.8727 -763.5825 313.3753)" class="st0" width="1.1" height="1.1"/><rect x="-339.2" y="247.5" transform="matrix(0.8727 0.4882 -0.4882 0.8727 77.9636 196.9225)" class="st0" width="1.1" height="1.1"/><rect x="-338.5" y="250.3" transform="matrix(-0.8727 -0.4882 0.4882 -0.8727 -755.2649 304.7125)" class="st0" width="1.1" height="1.1"/><rect x="-340.5" y="253.9" transform="matrix(-0.8727 -0.4882 0.4882 -0.8727 -760.8095 310.4872)" class="st0" width="1.1" height="1.1"/><rect x="-345.3" y="258.3" transform="matrix(-0.8727 -0.4882 0.4882 -0.8727 -772.0136 316.3786)" class="st0" width="1.1" height="1.1"/><rect x="-347.3" y="261.9" transform="matrix(-0.8727 -0.4882 0.4882 -0.8727 -777.5591 322.1548)" class="st0" width="1.1" height="1.1"/><rect x="-342.5" y="257.5" transform="matrix(-0.8727 -0.4882 0.4882 -0.8727 -766.3516 316.2617)" class="st0" width="1.1" height="1.1"/><rect x="-355.9" y="247.6" transform="matrix(0.8727 0.4882 -0.4882 0.8727 75.915 205.0869)" class="st0" width="1.1" height="1.1"/><rect x="-343.5" y="259.3" transform="matrix(-0.8727 -0.4882 0.4882 -0.8727 -769.1212 319.1888)" class="st0" width="1.1" height="1.1"/><rect x="-346.3" y="260.1" transform="matrix(-0.8727 -0.4882 0.4882 -0.8727 -774.7863 319.2665)" class="st0" width="1.1" height="1.1"/><rect x="-346.3" y="238.8" transform="matrix(-0.8727 -0.4882 0.4882 -0.8727 -764.2695 279.4051)" class="st0" width="1.1" height="1.1"/><path class="st0" d="M-344.4 238.1c-0.1 0-0.3 0-0.4-0.1l0.3 0.2L-344.4 238.1z"/><path class="st0" d="M-346.8 238.1l-0.5-0.3c-0.2 0-0.4 0-0.6 0l-0.4 0.7 0.9 0.5L-346.8 238.1z"/><path class="st0" d="M-349.1 238C-349.1 238-349.1 238-349.1 238L-349.1 238 -349.1 238z"/><rect x="-344.4" y="239.8" transform="matrix(0.4882 -0.8727 0.8727 0.4882 -385.7541 -177.1352)" class="st0" width="1.1" height="1.1"/><rect x="-340.8" y="241.8" transform="matrix(0.4882 -0.8727 0.8727 0.4882 -385.6682 -172.9505)" class="st0" width="1.1" height="1.1"/><path class="st0" d="M-340.7 240c-0.3-0.2-0.6-0.4-0.9-0.6l-0.2 0.4 0.9 0.5L-340.7 240z"/><path class="st0" d="M-342.5 238.9c-0.3-0.2-0.7-0.3-1-0.4l-0.2 0.3 0.9 0.5L-342.5 238.9z"/><path class="st0" d="M-340 240.7l-0.1 0.1 0.3 0.2C-339.8 240.9-339.9 240.7-340 240.7z"/><rect x="-342.6" y="240.8" transform="matrix(0.4882 -0.8727 0.8727 0.4882 -385.7115 -175.0422)" class="st0" width="1.1" height="1.1"/><rect x="-357.6" y="263.3" transform="matrix(-0.8727 -0.4883 0.4883 -0.8727 -797.4415 319.6982)" class="st0" width="1.1" height="1.1"/><rect x="-361" y="256.6" transform="matrix(-0.8727 -0.4882 0.4882 -0.8727 -800.5582 305.6331)" class="st0" width="1.1" height="1.1"/><rect x="-362" y="258.4" transform="matrix(0.8727 0.4883 -0.4883 0.8727 80.4348 209.4631)" class="st0" width="1.1" height="1.1"/><rect x="-359.4" y="262.3" transform="matrix(-0.8727 -0.4883 0.4883 -0.8727 -800.3243 316.9245)" class="st0" width="1.1" height="1.1"/><rect x="-360.4" y="264.1" transform="matrix(-0.8727 -0.4882 0.4882 -0.8727 -803.1014 319.8441)" class="st0" width="1.1" height="1.1"/><rect x="-361.8" y="253.8" transform="matrix(0.8727 0.4882 -0.4882 0.8727 78.2036 208.7307)" class="st0" width="1.1" height="1.1"/><rect x="-358.7" y="248.4" transform="matrix(0.8727 0.4882 -0.4882 0.8727 75.9449 206.5636)" class="st0" width="1.1" height="1.1"/><rect x="-356.7" y="244.8" transform="matrix(0.8727 0.4882 -0.4882 0.8727 74.4393 205.1172)" class="st0" width="1.1" height="1.1"/><rect x="-357.7" y="246.6" transform="matrix(0.8727 0.4882 -0.4882 0.8727 75.1912 205.8389)" class="st0" width="1.1" height="1.1"/><rect x="-359.7" y="250.2" transform="matrix(0.8727 0.4882 -0.4882 0.8727 76.6975 207.2847)" class="st0" width="1.1" height="1.1"/><rect x="-358.6" y="265.1" transform="matrix(-0.8727 -0.4882 0.4882 -0.8727 -800.2161 322.6186)" class="st0" width="1.1" height="1.1"/><rect x="-360.8" y="252" transform="matrix(0.8727 0.4882 -0.4882 0.8727 77.4506 208.0077)" class="st0" width="1.1" height="1.1"/><rect x="-353" y="263.5" transform="matrix(-0.8727 -0.4882 0.4882 -0.8727 -788.8937 322.3886)" class="st0" width="1.1" height="1.1"/><rect x="-351.2" y="264.5" transform="matrix(-0.8727 -0.4882 0.4882 -0.8727 -786.0052 325.1605)" class="st0" width="1.1" height="1.1"/><rect x="-351.9" y="261.7" transform="matrix(-0.8727 -0.4882 0.4882 -0.8727 -786.1101 319.5357)" class="st0" width="1.1" height="1.1"/><rect x="-349.1" y="239.6" transform="matrix(-0.8727 -0.4882 0.4882 -0.8727 -769.929 279.5187)" class="st0" width="1.1" height="1.1"/><rect x="-350.1" y="262.7" transform="matrix(-0.8728 -0.4881 0.4881 -0.8728 -783.2083 322.3344)" class="st0" width="1.1" height="1.1"/><rect x="-349.1" y="260.9" transform="matrix(-0.8727 -0.4882 0.4882 -0.8727 -780.4486 319.3817)" class="st0" width="1.1" height="1.1"/><rect x="-348.3" y="263.7" transform="matrix(-0.8727 -0.4882 0.4882 -0.8727 -780.3366 325.046)" class="st0" width="1.1" height="1.1"/><rect x="-356.8" y="266.1" transform="matrix(-0.8727 -0.4882 0.4882 -0.8727 -797.3173 325.4271)" class="st0" width="1.1" height="1.1"/><rect x="-355.8" y="264.3" transform="matrix(-0.8727 -0.4882 0.4882 -0.8727 -794.5406 322.5009)" class="st0" width="1.1" height="1.1"/><rect x="-354" y="265.3" transform="matrix(-0.8727 -0.4883 0.4883 -0.8727 -791.6634 325.2447)" class="st0" width="1.1" height="1.1"/><rect x="-354.8" y="262.5" transform="matrix(-0.8727 -0.4882 0.4882 -0.8727 -791.7714 319.6137)" class="st0" width="1.1" height="1.1"/><rect x="-344.5" y="261.1" transform="matrix(-0.8727 -0.4882 0.4882 -0.8727 -771.9034 322.041)" class="st0" width="1.1" height="1.1"/><rect x="-349.3" y="265.5" transform="matrix(0.8727 0.4882 -0.4882 0.8727 85.4936 204.1532)" class="st0" width="1.1" height="1.1"/><path class="st0" d="M-343.9 264.7L-343.9 264.7c0.3-0.2 0.6-0.5 0.8-0.8l-0.3-0.2L-343.9 264.7z"/><rect x="-346.5" y="264.7" transform="matrix(0.8727 0.4882 -0.4882 0.8727 85.4636 202.6776)" class="st0" width="1.1" height="1.1"/><rect x="-345.5" y="262.9" transform="matrix(0.8727 0.4882 -0.4882 0.8727 84.7104 201.9533)" class="st0" width="1.1" height="1.1"/><rect x="-350.4" y="267.3" transform="matrix(0.8727 0.4882 -0.4882 0.8727 86.2394 204.8557)" class="st0" width="1.1" height="1.1"/><path class="st0" d="M-347.7 267.3l0.3 0.2c0.3-0.2 0.7-0.4 1-0.7l-0.8-0.4L-347.7 267.3z"/><path class="st0" d="M-354.2 270.3c0.3-0.1 0.6-0.1 0.9-0.2l-0.6-0.4L-354.2 270.3z"/><rect x="-355" y="267.1" transform="matrix(-0.4882 0.8727 -0.8727 -0.4882 -293.9146 707.6296)" class="st0" width="1.1" height="1.1"/><rect x="-352.2" y="266.3" transform="matrix(-0.4882 0.8727 -0.8727 -0.4882 -290.4142 703.9896)" class="st0" width="1.1" height="1.1"/><path class="st0" d="M-351.3 269.5c0.2-0.1 0.5-0.2 0.7-0.3l-0.4-0.2L-351.3 269.5z"/><rect x="-353.2" y="268.1" transform="matrix(0.8727 0.4883 -0.4883 0.8727 86.2793 206.3898)" class="st0" width="1.1" height="1.1"/><path class="st0" d="M-340.9 259.2l1.2 0.6c0.2-0.3 0.4-0.6 0.6-0.9l-1.2-0.7L-340.9 259.2z"/><path class="st0" d="M-337.1 248.3l-0.5 0.9 0.9 0.5 0.2-0.4c0-0.2 0-0.5 0-0.7L-337.1 248.3z"/><path class="st0" d="M-342.9 262.9l0.6 0.3c0.3-0.3 0.5-0.5 0.7-0.8l-0.8-0.4L-342.9 262.9z"/><path class="st0" d="M-336.7 252.1c0-0.2 0.1-0.4 0.1-0.6l-0.3 0.5L-336.7 252.1z"/><path class="st0" d="M-341.3 237.8c-1.7-1-3.7-1.5-5.7-1.5 -5.6 0-11.2 3.7-14.4 9.4 -2.9 5.1-4 12.2-3 17.7 0 0 0 0 0 0 0 0.1 0.1 0.3 0.1 0.7 0.7 3.1 2.2 5.6 4.5 6.8 1.1 0.6 2.5 1 3.9 1 1.5 0 3.1-0.3 4.7-0.9 0.1 0 0.2-0.1 0.2-0.1 0 0 0 0 0 0 5.1-1.9 10.5-6.5 13.5-11.8 2.2-3.9 3-8.3 2.3-12.3C-336 242.8-338.1 239.6-341.3 237.8zM-335.5 250.6c0 0.1 0 0.1 0 0.2 0 0.7-0.1 1.4-0.3 2.1 0 0 0 0 0 0 -0.1 0.7-0.3 1.3-0.5 2 0 0.1 0 0.1-0.1 0.2 0 0 0 0 0 0 -0.2 0.6-0.4 1.3-0.7 1.9 0 0 0 0 0 0.1 0 0 0 0 0 0 -0.3 0.6-0.5 1.1-0.8 1.7 0 0-0.1 0.1-0.1 0.1 0 0 0 0 0 0s0 0 0 0c-0.3 0.6-0.7 1.2-1.1 1.7 0 0 0 0 0 0 0 0 0 0 0 0 -1.7 2.4-3.8 4.6-6.2 6.3 0 0-0.1 0.1-0.1 0.1 -0.6 0.4-1.1 0.8-1.7 1.2 0 0-0.1 0.1-0.1 0.1 -0.6 0.4-1.2 0.7-1.8 1 -0.1 0-0.1 0.1-0.2 0.1 0 0 0 0 0 0 -0.1 0-0.1 0.1-0.2 0.1 -0.8 0.4-1.5 0.7-2.3 1 -0.1 0.1-0.2 0.1-0.2 0.1 -0.1 0-0.2 0.1-0.2 0.1 0 0-0.1 0-0.1 0 -1.3 0.4-2.5 0.6-3.6 0.6 -0.5 0-1-0.1-1.5-0.1 0 0 0 0 0 0 0 0-0.1 0-0.1 0 -0.8-0.1-1.5-0.4-2.1-0.7 -0.6-0.3-1.1-0.8-1.6-1.3 0 0 0 0 0 0 -0.1 0-0.1-0.1-0.2-0.2 -0.5-0.5-0.9-1.2-1.2-1.9 0-0.1-0.1-0.1-0.1-0.2 -0.4-0.7-0.7-1.5-0.9-2.4 0-0.1-0.1-0.2-0.1-0.2 0-0.1 0-0.2-0.1-0.2 0-0.1 0-0.1-0.1-0.2 -0.2-0.8-0.3-1.6-0.4-2.5 0-0.1 0-0.1 0-0.2 0 0 0 0 0 0 0-0.1 0-0.2 0-0.2 0-0.4-0.1-0.7-0.1-1.1 0-0.3 0-0.6 0-1 0-0.1 0-0.1 0-0.2 0-0.7 0-1.4 0.1-2.1 0 0 0-0.1 0-0.1 0.1-1.5 0.4-3 0.8-4.4 0 0 0 0 0 0 0.2-0.7 0.4-1.3 0.6-2 0-0.1 0-0.1 0.1-0.2 0 0 0 0 0 0 0.2-0.6 0.5-1.3 0.7-1.9 0 0 0-0.1 0-0.1 0 0 0 0 0 0 0.3-0.6 0.6-1.2 0.9-1.8 0 0 0 0 0 0 0 0 0 0 0 0 0 0 0-0.1 0.1-0.1 0.3-0.5 0.6-1.1 1-1.6 0 0 0 0 0 0 0 0 0 0 0-0.1 0.4-0.6 0.8-1.1 1.2-1.6 0 0 0 0 0 0 0-0.1 0.1-0.1 0.1-0.2 0.5-0.5 0.9-1 1.4-1.4 0 0 0.1-0.1 0.1-0.1 0.5-0.5 1.1-0.9 1.7-1.3 0 0 0.1-0.1 0.1-0.1 0.3-0.2 0.6-0.4 0.9-0.6 0 0 0.1 0 0.1-0.1 0.3-0.2 0.6-0.3 0.9-0.5 0 0 0.1 0 0.1-0.1 0.7-0.4 1.5-0.7 2.2-0.9 0 0 0 0 0 0 0.1 0 0.2-0.1 0.3-0.1 0 0 0.1 0 0.1 0 1.2-0.3 2.4-0.5 3.6-0.5 0.4 0 0.8 0 1.2 0.1 0 0 0.1 0 0.1 0 0.7 0.1 1.4 0.2 2.1 0.4 0.1 0 0.1 0 0.2 0.1 0 0 0 0 0 0 0.6 0.2 1.3 0.5 1.9 0.8 0.6 0.3 1.2 0.7 1.7 1.2 0 0 0 0 0 0 0.1 0 0.1 0.1 0.2 0.1 0.5 0.5 1 1 1.4 1.5 0 0 0.1 0.1 0.1 0.1 0.2 0.3 0.5 0.7 0.7 1 0.1 0.1 0.1 0.1 0.1 0.2 0.1 0.3 0.3 0.5 0.4 0.8 0 0 0.1 0.1 0.1 0.1 0.3 0.7 0.6 1.4 0.8 2.2 0 0 0 0 0 0 0 0.1 0 0.2 0.1 0.3 0 0 0 0.1 0 0.1 0.2 0.7 0.3 1.4 0.4 2.2 0 0 0 0 0 0.1 0 0.4 0 0.7 0.1 1.1 0 0.1 0 0.1 0 0.2C-335.5 249.9-335.5 250.3-335.5 250.6z"/><path class="st0" d="M-337.9 253.8l0.8 0.4c0.1-0.4 0.2-0.7 0.3-1.1l-0.5-0.3L-337.9 253.8z"/><path class="st0" d="M-341.9 261.1l0.9 0.5c0.2-0.3 0.5-0.6 0.7-0.9l-1.1-0.6L-341.9 261.1z"/><path class="st0" d="M-338.9 255.6l1.1 0.6c0.1-0.3 0.3-0.7 0.4-1l-0.9-0.5L-338.9 255.6z"/><rect x="-356" y="268.9" transform="matrix(0.8727 0.4882 -0.4882 0.8727 86.3063 207.8264)" class="st0" width="1.1" height="1.1"/><path class="st0" d="M-339.9 257.4l1.2 0.7c0.2-0.3 0.3-0.6 0.5-1l-1.2-0.7L-339.9 257.4z"/><path class="st0" d="M-363 262.9l0.3-0.5 -0.4-0.2C-363.1 262.4-363.1 262.7-363 262.9z"/><path class="st0" d="M-356.2 242.3l-0.5-0.3c-0.3 0.3-0.5 0.5-0.8 0.8l0.8 0.4L-356.2 242.3z"/><path class="st0" d="M-357.3 244.1l-0.9-0.5c-0.2 0.3-0.5 0.6-0.7 0.9l1.1 0.6L-357.3 244.1z"/><path class="st0" d="M-358.3 245.9l-1.2-0.7c-0.2 0.3-0.4 0.6-0.6 0.9l1.2 0.7L-358.3 245.9z"/><path class="st0" d="M-359.3 247.7l-1.2-0.7c-0.2 0.3-0.3 0.6-0.5 1l1.2 0.6L-359.3 247.7z"/><path class="st0" d="M-360.3 249.5l-1.1-0.6c-0.1 0.3-0.3 0.7-0.4 1l0.9 0.5L-360.3 249.5z"/><rect x="-355.7" y="243" transform="matrix(0.4882 -0.8727 0.8727 0.4882 -394.2961 -185.3346)" class="st0" width="1.1" height="1.1"/><path class="st0" d="M-352.4 239.7l-0.6-0.3c-0.2 0.1-0.4 0.2-0.7 0.4l-0.2 0.4 0.9 0.5L-352.4 239.7z"/><rect x="-351.9" y="240.4" transform="matrix(-0.8727 -0.4882 0.4882 -0.8727 -775.5936 279.6368)" class="st0" width="1.1" height="1.1"/><rect x="-357.8" y="267.9" transform="matrix(0.8727 0.4882 -0.4882 0.8727 85.5833 208.5817)" class="st0" width="1.1" height="1.1"/><path class="st0" d="M-355.5 241c-0.2 0.1-0.3 0.2-0.5 0.4l0.2 0.1L-355.5 241z"/><rect x="-354.7" y="241.2" transform="matrix(-0.8727 -0.4882 0.4882 -0.8727 -781.2606 279.7555)" class="st0" width="1.1" height="1.1"/><path class="st0" d="M-361.3 251.3l-0.8-0.4c-0.1 0.4-0.2 0.7-0.3 1.1l0.5 0.3L-361.3 251.3z"/><rect x="-361.4" y="265.9" transform="matrix(-0.4882 0.8727 -0.8727 -0.4882 -304.5482 711.4158)" class="st0" width="1.1" height="1.1"/><path class="st0" d="M-362.3 253.1l-0.3-0.2c-0.1 0.4-0.2 0.7-0.2 1.1l0 0L-362.3 253.1z"/><path class="st0" d="M-358.7 269.9c0.3 0.1 0.7 0.3 1 0.4l0.1-0.2 -0.9-0.5L-358.7 269.9z"/><rect x="-359.6" y="266.9" transform="matrix(-0.4882 0.8727 -0.8727 -0.4882 -300.9749 711.3453)" class="st0" width="1.1" height="1.1"/><path class="st0" d="M-362.2 265.7l0.3-0.5 -0.6-0.4C-362.5 265.2-362.4 265.5-362.2 265.7z"/><path class="st0" d="M-360.4 268.7c0.3 0.3 0.5 0.5 0.8 0.7l0.2-0.4 -0.9-0.5L-360.4 268.7z"/><path class="st0" d="M-362.5 257.8l-0.7-0.4c0 0.4-0.1 0.8-0.1 1.2l0.3 0.2L-362.5 257.8z"/><rect x="-362.8" y="255.6" transform="matrix(-0.8727 -0.4882 0.4882 -0.8727 -803.4369 302.8593)" class="st0" width="1.1" height="1.1"/><rect x="-350.9" y="238.6" transform="matrix(-0.8727 -0.4883 0.4883 -0.8727 -772.8273 276.721)" class="st0" width="1.1" height="1.1"/><rect x="-363" y="260.2" transform="matrix(-0.8727 -0.4883 0.4883 -0.8727 -806.0995 311.3773)" class="st0" width="1.1" height="1.1"/><rect x="-342.3" y="252.9" transform="matrix(-0.8727 -0.4882 0.4882 -0.8727 -763.692 307.712)" class="st0" width="1.1" height="1.1"/><rect x="-352.5" y="254.2" transform="matrix(-0.8727 -0.4882 0.4882 -0.8727 -783.565 305.2852)" class="st0" width="1.1" height="1.1"/><rect x="-350.7" y="255.3" transform="matrix(-0.8727 -0.4882 0.4882 -0.8727 -780.6799 308.06)" class="st0" width="1.1" height="1.1"/><rect x="-353.3" y="251.4" transform="matrix(-0.8727 -0.4882 0.4882 -0.8727 -783.6848 299.6243)" class="st0" width="1.1" height="1.1"/><rect x="-350.5" y="250.6" transform="matrix(-0.8727 -0.4882 0.4882 -0.8727 -778.0224 299.5092)" class="st0" width="1.1" height="1.1"/><rect x="-351.5" y="252.4" transform="matrix(-0.8727 -0.4882 0.4882 -0.8727 -780.7906 302.3945)" class="st0" width="1.1" height="1.1"/><rect x="-353.5" y="256" transform="matrix(-0.8728 -0.4881 0.4881 -0.8728 -786.3258 308.2365)" class="st0" width="1.1" height="1.1"/><rect x="-358.2" y="255.8" transform="matrix(0.8727 0.4882 -0.4882 0.8727 79.6494 207.2238)" class="st0" width="1.1" height="1.1"/><rect x="-354.3" y="253.2" transform="matrix(-0.8727 -0.4882 0.4882 -0.8727 -786.458 302.5135)" class="st0" width="1.1" height="1.1"/><rect x="-357.2" y="254" transform="matrix(-0.8727 -0.4882 0.4882 -0.8727 -792.1191 302.6305)" class="st0" width="1.1" height="1.1"/><rect x="-355.3" y="255" transform="matrix(-0.8727 -0.4882 0.4882 -0.8727 -789.2383 305.4042)" class="st0" width="1.1" height="1.1"/><rect x="-344.9" y="249" transform="matrix(0.8727 0.4882 -0.4882 0.8727 78.0238 199.8757)" class="st0" width="1.1" height="1.1"/><rect x="-356.4" y="256.8" transform="matrix(-0.8727 -0.4882 0.4882 -0.8727 -792.0037 308.2897)" class="st0" width="1.1" height="1.1"/><rect x="-346.7" y="248" transform="matrix(0.8727 0.4882 -0.4882 0.8727 77.3012 200.6299)" class="st0" width="1.1" height="1.1"/><rect x="-345.7" y="246.2" transform="matrix(0.8727 0.4883 -0.4883 0.8727 76.5493 199.9424)" class="st0" width="1.1" height="1.1"/><rect x="-348.5" y="247" transform="matrix(0.8727 0.4882 -0.4882 0.8727 76.5769 201.3797)" class="st0" width="1.1" height="1.1"/><rect x="-347.5" y="245.2" transform="matrix(0.8727 0.4882 -0.4882 0.8727 75.825 200.6586)" class="st0" width="1.1" height="1.1"/><rect x="-345.9" y="250.8" transform="matrix(-0.8727 -0.4882 0.4882 -0.8727 -769.4754 302.1696)" class="st0" width="1.1" height="1.1"/><rect x="-346.9" y="252.7" transform="matrix(-0.8727 -0.4882 0.4882 -0.8727 -772.2484 305.0575)" class="st0" width="1.1" height="1.1"/><rect x="-347.7" y="249.8" transform="matrix(-0.8727 -0.4882 0.4882 -0.8727 -772.3651 299.3967)" class="st0" width="1.1" height="1.1"/><rect x="-348.7" y="251.6" transform="matrix(-0.8727 -0.4882 0.4882 -0.8727 -775.1381 302.2845)" class="st0" width="1.1" height="1.1"/><rect x="-347.9" y="254.5" transform="matrix(-0.8727 -0.4882 0.4882 -0.8727 -775.0175 307.9442)" class="st0" width="1.1" height="1.1"/><rect x="-349.7" y="253.4" transform="matrix(-0.8727 -0.4882 0.4882 -0.8727 -777.9109 305.1726)" class="st0" width="1.1" height="1.1"/><rect x="-354.9" y="245.8" transform="matrix(0.8727 0.4882 -0.4882 0.8727 75.161 204.3621)" class="st0" width="1.1" height="1.1"/><polygon class="st0" points="-369.4 285.6 -366.9 286.1 -366.7 285.6 -368.5 283.9 "/><polygon class="st0" points="-368 283 -366.2 284.7 -365.6 283.7 -367.3 281.8 "/><path class="st0" d="M-337.4 244.6L-337.4 244.6 -337.4 244.6C-337.4 244.6-337.4 244.6-337.4 244.6z"/><path class="st0" d="M-355.9 272.9c-1.6 0-3.1-0.4-4.4-1.1 -1.5-0.8-2.7-2.2-3.5-3.8 0.1 3.1-0.1 7.3-1.7 11.8l1.1 0.6c3-3.7 6.5-6.1 9.2-7.6C-355.5 272.9-355.7 272.9-355.9 272.9L-355.9 272.9z"/><polygon class="st0" points="-366.8 280.9 -365.1 282.8 -364.4 281.6 -366.5 280.4 "/><path class="st0" d="M-369.9 286.5l-0.4 0.8c0 0 0.1 0 0.1 0.1l1.9 1.3 0.9-1.6L-369.9 286.5C-369.9 286.5-369.9 286.5-369.9 286.5z"/><path class="st0" d="M-375.4 295.8C-375.4 295.8-375.4 295.8-375.4 295.8c0.7 0.9 1.5 1.5 2.3 2 0.3-0.7 0.6-1.5 0.9-2.2l-2.7-0.6C-375 295.3-375.2 295.5-375.4 295.8z"/><path class="st0" d="M-370.8 288.1l-0.8 1.5 2.7 0.1 0.1-0.3L-370.8 288.1C-370.8 288.1-370.8 288.1-370.8 288.1z"/><rect x="-349.5" y="248.8" transform="matrix(0.8727 0.4882 -0.4882 0.8727 77.3299 202.1028)" class="st0" width="1.1" height="1.1"/><rect x="-343.9" y="247.2" transform="matrix(0.8727 0.4883 -0.4883 0.8727 77.272 199.1883)" class="st0" width="1.1" height="1.1"/><path class="st0" d="M-374.3 294.1l2.6 0.6c0.1-0.3 0.3-0.5 0.4-0.8l-2.1-1.2C-373.7 293.2-374 293.6-374.3 294.1z"/><path class="st0" d="M-372.2 290.5l-0.8 1.3 2.1 1.2 1.3-2.4 -2.4-0.1C-372 290.6-372.1 290.5-372.2 290.5z"/><rect x="-360.2" y="259.4" transform="matrix(0.8727 0.4883 -0.4883 0.8727 81.1582 208.7094)" class="st0" width="1.1" height="1.1"/><rect x="-359.2" y="257.6" transform="matrix(-0.8727 -0.4882 0.4882 -0.8727 -797.6664 308.409)" class="st0" width="1.1" height="1.1"/><rect x="-343.1" y="250.1" transform="matrix(0.8727 0.4882 -0.4882 0.8727 78.7466 199.1222)" class="st0" width="1.1" height="1.1"/><rect x="-344.1" y="251.9" transform="matrix(0.8727 0.4882 -0.4882 0.8727 79.4997 199.8455)" class="st0" width="1.1" height="1.1"/><rect x="-342.1" y="248.3" transform="matrix(-0.8727 -0.4882 0.4882 -0.8727 -761.0323 299.2008)" class="st0" width="1.1" height="1.1"/><rect x="-362.2" y="263.1" transform="matrix(0.8727 0.4882 -0.4882 0.8727 82.6617 210.117)" class="st0" width="1.1" height="1.1"/><rect x="-338.2" y="245.6" transform="matrix(0.4882 -0.8727 0.8727 0.4882 -387.6767 -168.7195)" class="st0" width="1.1" height="1.1"/><rect x="-340" y="244.6" transform="matrix(-0.8727 -0.4882 0.4882 -0.8727 -755.4913 293.3867)" class="st0" width="1.1" height="1.1"/><rect x="-361.2" y="261.2" transform="matrix(-0.8727 -0.4882 0.4882 -0.8727 -803.2075 314.1826)" class="st0" width="1.1" height="1.1"/><rect x="-341.1" y="246.4" transform="matrix(0.8727 0.4882 -0.4882 0.8727 77.234 197.6576)" class="st0" width="1.1" height="1.1"/><rect x="-350.9" y="259.9" transform="matrix(-0.8727 -0.4882 0.4882 -0.8727 -783.3373 316.6099)" class="st0" width="1.1" height="1.1"/><rect x="-340.3" y="249.3" transform="matrix(-0.8727 -0.4882 0.4882 -0.8727 -758.1588 301.9406)" class="st0" width="1.1" height="1.1"/><rect x="-341.3" y="251.1" transform="matrix(-0.8727 -0.4883 0.4883 -0.8727 -760.9295 304.7986)" class="st0" width="1.1" height="1.1"/><rect x="-341.8" y="243.6" transform="matrix(0.8727 0.4882 -0.4882 0.8727 75.7649 197.7072)" class="st0" width="1.1" height="1.1"/><rect x="-342.9" y="245.4" transform="matrix(0.8727 0.4882 -0.4882 0.8727 76.5116 198.4105)" class="st0" width="1.1" height="1.1"/><rect x="-344.7" y="244.4" transform="matrix(0.8727 0.4882 -0.4882 0.8727 75.794 199.1817)" class="st0" width="1.1" height="1.1"/><rect x="-343.7" y="242.6" transform="matrix(0.8727 0.4882 -0.4882 0.8727 75.0421 198.4604)" class="st0" width="1.1" height="1.1"/><rect x="-345.1" y="253.7" transform="matrix(-0.8727 -0.4882 0.4882 -0.8727 -769.3594 307.8291)" class="st0" width="1.1" height="1.1"/><rect x="-343.3" y="254.7" transform="matrix(-0.8727 -0.4882 0.4882 -0.8727 -766.4722 310.603)" class="st0" width="1.1" height="1.1"/><rect x="-346.1" y="255.5" transform="matrix(-0.8727 -0.4883 0.4883 -0.8727 -772.1402 310.6904)" class="st0" width="1.1" height="1.1"/><rect x="-344.3" y="256.5" transform="matrix(-0.8727 -0.4882 0.4882 -0.8727 -769.2366 313.4877)" class="st0" width="1.1" height="1.1"/><rect x="-348.3" y="242.4" transform="matrix(0.8727 0.4882 -0.4882 0.8727 74.3492 200.6898)" class="st0" width="1.1" height="1.1"/><rect x="-352.1" y="245" transform="matrix(0.8727 0.4882 -0.4882 0.8727 75.1306 202.8856)" class="st0" width="1.1" height="1.1"/><rect x="-351.1" y="243.2" transform="matrix(0.8727 0.4882 -0.4882 0.8727 74.3791 202.1655)" class="st0" width="1.1" height="1.1"/><rect x="-350.1" y="241.4" transform="matrix(0.8727 0.4882 -0.4882 0.8727 73.6255 201.4404)" class="st0" width="1.1" height="1.1"/><rect x="-352.9" y="242.2" transform="matrix(0.8727 0.4882 -0.4882 0.8727 73.6558 202.9183)" class="st0" width="1.1" height="1.1"/><rect x="-353.9" y="244" transform="matrix(0.8727 0.4882 -0.4882 0.8727 74.4081 203.6401)" class="st0" width="1.1" height="1.1"/><rect x="-347.3" y="240.6" transform="matrix(0.8727 0.4883 -0.4883 0.8727 73.5967 200.0019)" class="st0" width="1.1" height="1.1"/><rect x="-346.5" y="243.4" transform="matrix(0.8727 0.4882 -0.4882 0.8727 75.0711 199.9339)" class="st0" width="1.1" height="1.1"/><rect x="-345.5" y="241.6" transform="matrix(0.8727 0.4882 -0.4882 0.8727 74.3194 199.2139)" class="st0" width="1.1" height="1.1"/><rect x="-349.3" y="244.2" transform="matrix(0.8727 0.4882 -0.4882 0.8727 75.1022 201.4127)" class="st0" width="1.1" height="1.1"/><rect x="-347.1" y="257.3" transform="matrix(-0.8727 -0.4882 0.4882 -0.8727 -774.902 313.6049)" class="st0" width="1.1" height="1.1"/><rect x="-354.1" y="248.6" transform="matrix(0.8727 0.4882 -0.4882 0.8727 76.6369 204.331)" class="st0" width="1.1" height="1.1"/><rect x="-357.9" y="251.2" transform="matrix(0.8727 0.4882 -0.4882 0.8727 77.4205 206.532)" class="st0" width="1.1" height="1.1"/><rect x="-360" y="254.8" transform="matrix(0.8727 0.4882 -0.4882 0.8727 78.9262 207.977)" class="st0" width="1.1" height="1.1"/><rect x="-359" y="253" transform="matrix(0.8727 0.4882 -0.4882 0.8727 78.1742 207.2568)" class="st0" width="1.1" height="1.1"/><rect x="-358.4" y="260.5" transform="matrix(-0.8727 -0.4882 0.4882 -0.8727 -797.5547 314.0688)" class="st0" width="1.1" height="1.1"/><rect x="-357.4" y="258.6" transform="matrix(-0.8727 -0.4882 0.4882 -0.8727 -794.7818 311.1811)" class="st0" width="1.1" height="1.1"/><rect x="-350.3" y="246" transform="matrix(0.8727 0.4883 -0.4883 0.8727 75.8558 202.1712)" class="st0" width="1.1" height="1.1"/><rect x="-353.1" y="246.8" transform="matrix(0.8727 0.4882 -0.4882 0.8727 75.884 203.6084)" class="st0" width="1.1" height="1.1"/><rect x="-355.1" y="250.4" transform="matrix(0.8727 0.4882 -0.4882 0.8727 77.391 205.0566)" class="st0" width="1.1" height="1.1"/><rect x="-356.9" y="249.4" transform="matrix(0.8727 0.4882 -0.4882 0.8727 76.6682 205.8106)" class="st0" width="1.1" height="1.1"/><rect x="-356.1" y="252.2" transform="matrix(0.8727 0.4882 -0.4882 0.8727 78.1437 205.779)" class="st0" width="1.1" height="1.1"/><rect x="-356.6" y="261.5" transform="matrix(-0.8728 -0.4881 0.4881 -0.8728 -794.6458 316.9049)" class="st0" width="1.1" height="1.1"/><rect x="-349.9" y="258.1" transform="matrix(-0.8727 -0.4882 0.4882 -0.8727 -780.5726 313.7245)" class="st0" width="1.1" height="1.1"/><rect x="-348.1" y="259.1" transform="matrix(-0.8727 -0.4882 0.4882 -0.8727 -777.6794 316.4946)" class="st0" width="1.1" height="1.1"/><rect x="-351.7" y="257.1" transform="matrix(-0.8727 -0.4882 0.4882 -0.8727 -783.4605 310.9508)" class="st0" width="1.1" height="1.1"/><rect x="-348.9" y="256.3" transform="matrix(-0.8727 -0.4882 0.4882 -0.8727 -777.7953 310.835)" class="st0" width="1.1" height="1.1"/><rect x="-352.3" y="249.6" transform="matrix(0.8727 0.4882 -0.4882 0.8727 77.3606 203.5801)" class="st0" width="1.1" height="1.1"/><rect x="-353.8" y="260.7" transform="matrix(-0.8727 -0.4882 0.4882 -0.8727 -789.0071 316.7289)" class="st0" width="1.1" height="1.1"/><rect x="-354.6" y="257.9" transform="matrix(-0.8727 -0.4882 0.4882 -0.8727 -789.115 311.0632)" class="st0" width="1.1" height="1.1"/><rect x="-352.7" y="258.9" transform="matrix(-0.8727 -0.4882 0.4882 -0.8727 -786.2255 313.8364)" class="st0" width="1.1" height="1.1"/><rect x="-355.6" y="259.7" transform="matrix(-0.8727 -0.4882 0.4882 -0.8727 -791.8966 313.9529)" class="st0" width="1.1" height="1.1"/><path d="M-334.3 246.6c-0.8-4.3-3.1-7.7-6.6-9.7 -1.9-1.1-4-1.6-6.2-1.6 -5.9 0-11.9 3.9-15.3 9.9 -2.9 5.3-4.1 12.4-3.1 18.2 0 0.1 0 0.2 0 0.2 0 0.1 1.8 7.6-1 15.7l-0.1 0c-0.2-0.1-0.5 0-0.7 0.2l-7 12.5c-0.9 1.6-2 3.1-3.1 4.5 -0.4 0.5-0.6 1.1-0.4 1.7 0.1 0.6 0.5 1.1 1 1.4l1.2 0.7c0.3 0.2 0.7 0.3 1 0.3 0.3 0 0.5 0 0.7-0.1 0.6-0.2 1-0.7 1.2-1.3 0.6-1.7 1.3-3.4 2.2-5l7-12.5c0.1-0.1 0.1-0.3 0-0.4 0-0.1-0.1-0.2-0.2-0.3l-0.1 0c5.5-6.6 12.8-9.1 12.9-9.1 0 0 0 0 0.1 0 5.3-2 10.9-6.7 14-12.2C-334.3 255.5-333.5 250.9-334.3 246.6zM-373.5 298.9c-0.1 0.3-0.3 0.5-0.6 0.7 -0.3 0.1-0.6 0.1-0.9-0.1l-1.2-0.7c-0.3-0.2-0.5-0.4-0.5-0.7 -0.1-0.3 0-0.6 0.2-0.9 0.2-0.2 0.4-0.4 0.5-0.7 0.7 0.9 1.6 1.6 2.6 2.2C-373.4 298.8-373.5 298.9-373.5 298.9zM-373.1 297.8c-0.9-0.5-1.7-1.2-2.3-2 0 0-0.1 0-0.1-0.1 0.2-0.3 0.4-0.5 0.6-0.8l2.7 0.6C-372.5 296.3-372.8 297-373.1 297.8zM-371.7 294.7l-2.6-0.6c0.3-0.5 0.6-1 0.9-1.4l2.1 1.2C-371.4 294.2-371.6 294.4-371.7 294.7zM-370.8 293l-2.1-1.2 0.8-1.3c0.1 0.1 0.2 0.1 0.3 0.1l2.4 0.1L-370.8 293zM-368.9 289.7l-2.7-0.1 0.8-1.5c0 0 0 0 0.1 0.1l2 1.3L-368.9 289.7zM-368.3 288.6l-1.9-1.3c0 0-0.1 0-0.1-0.1l0.4-0.8c0 0 0.1 0 0.1 0l2.4 0.4L-368.3 288.6zM-366.9 286.1l-2.5-0.4 1-1.7 1.8 1.7L-366.9 286.1zM-366.2 284.7l-1.8-1.7 0.7-1.2 1.8 1.8L-366.2 284.7zM-365.1 282.8l-1.8-1.9 0.3-0.5 2.1 1.2L-365.1 282.8zM-364.4 280.5l-1.1-0.6c1.6-4.5 1.8-8.8 1.7-11.8 0.9 1.6 2 3 3.5 3.8 1.3 0.7 2.8 1.1 4.4 1.1 0 0 0 0 0 0 0.2 0 0.4 0 0.6 0C-357.9 274.4-361.4 276.8-364.4 280.5zM-337.5 259.1c-3 5.3-8.4 9.9-13.5 11.8 0 0 0 0 0 0 0 0-0.1 0-0.2 0.1 -1.6 0.6-3.2 0.9-4.7 0.9 -1.5 0-2.8-0.3-3.9-1 -2.3-1.3-3.7-3.8-4.5-6.9 -0.1-0.4-0.1-0.6-0.1-0.7 0 0 0 0 0 0 -1-5.5 0.1-12.5 3-17.7 3.2-5.7 8.8-9.4 14.4-9.4 2.1 0 4 0.5 5.7 1.5 3.2 1.8 5.3 5 6.1 9C-334.5 250.8-335.3 255.2-337.5 259.1z"/><path d="M-335.6 248.2C-335.6 248.2-335.6 248.2-335.6 248.2c-0.1-0.8-0.2-1.5-0.4-2.3 0 0 0-0.1 0-0.1 0-0.1 0-0.2-0.1-0.3 0 0 0 0 0 0 -0.2-0.8-0.5-1.5-0.8-2.2 0 0 0-0.1-0.1-0.1 -0.1-0.3-0.3-0.5-0.4-0.8 0-0.1-0.1-0.1-0.1-0.2 -0.2-0.3-0.4-0.7-0.7-1 0-0.1-0.1-0.1-0.1-0.1 -0.4-0.5-0.9-1.1-1.4-1.5 0-0.1-0.1-0.1-0.2-0.1 0 0 0 0 0 0 -0.5-0.4-1.1-0.8-1.7-1.2 -0.6-0.3-1.2-0.6-1.9-0.8 0 0 0 0 0 0 -0.1 0-0.1-0.1-0.2-0.1 -0.7-0.2-1.4-0.4-2.1-0.4 0 0-0.1 0-0.1 0 -0.4 0-0.8-0.1-1.2-0.1 -1.2 0-2.4 0.2-3.6 0.5 0 0-0.1 0-0.1 0 -0.1 0-0.2 0.1-0.3 0.1 0 0 0 0 0 0 -0.8 0.2-1.5 0.5-2.2 0.9 0 0-0.1 0-0.1 0.1 -0.3 0.2-0.6 0.3-0.9 0.5 0 0-0.1 0-0.1 0.1 -0.3 0.2-0.6 0.4-0.9 0.6 0 0-0.1 0-0.1 0.1 -0.6 0.4-1.1 0.8-1.7 1.3 0 0-0.1 0.1-0.1 0.1 -0.5 0.5-1 0.9-1.4 1.4 -0.1 0-0.1 0.1-0.1 0.2 0 0 0 0 0 0 -0.4 0.5-0.8 1-1.2 1.6 0 0 0 0 0 0.1 0 0 0 0 0 0 -0.4 0.5-0.7 1-1 1.6 0 0 0 0.1-0.1 0.1 0 0 0 0 0 0 0 0 0 0 0 0 -0.3 0.6-0.6 1.2-0.9 1.8 0 0 0 0 0 0 0 0 0 0.1 0 0.1 -0.3 0.6-0.5 1.2-0.7 1.8 0 0 0 0 0 0 0 0.1-0.1 0.1-0.1 0.2 -0.2 0.7-0.4 1.3-0.6 2 0 0 0 0 0 0 -0.4 1.4-0.6 2.9-0.8 4.4 0 0 0 0.1 0 0.1 -0.1 0.7-0.1 1.4-0.1 2.1 0 0.1 0 0.1 0 0.2 0 0.3 0 0.6 0 1 0 0.4 0 0.7 0.1 1.1 0 0.1 0 0.2 0 0.2 0 0 0 0 0 0 0 0.1 0 0.1 0 0.2 0.1 0.9 0.2 1.7 0.4 2.5 0 0.1 0 0.1 0.1 0.2 0 0.1 0 0.2 0.1 0.2 0 0.1 0 0.2 0.1 0.2 0.2 0.9 0.5 1.7 0.9 2.4 0 0.1 0 0.1 0.1 0.2 0.4 0.7 0.8 1.3 1.2 1.9 0 0.1 0.1 0.1 0.2 0.2 0 0 0 0 0 0 0.5 0.5 1 1 1.6 1.3 0.6 0.4 1.4 0.6 2.1 0.7 0 0 0.1 0 0.1 0 0 0 0 0 0 0 0.5 0.1 1 0.1 1.5 0.1 1.1 0 2.4-0.2 3.6-0.6 0 0 0.1 0 0.1 0 0.1 0 0.2-0.1 0.2-0.1 0.1 0 0.2 0 0.2-0.1 0.8-0.3 1.5-0.6 2.3-1 0.1 0 0.1 0 0.2-0.1 0 0 0 0 0 0 0.1 0 0.1 0 0.2-0.1 0.6-0.3 1.2-0.6 1.8-1 0 0 0.1 0 0.1-0.1 0.6-0.4 1.1-0.7 1.7-1.2 0 0 0.1 0 0.1-0.1 2.4-1.8 4.5-3.9 6.2-6.3 0 0 0 0 0 0 0 0 0 0 0 0 0.4-0.6 0.8-1.1 1.1-1.7 0 0 0 0 0 0s0 0 0 0c0 0 0.1-0.1 0.1-0.1 0.3-0.6 0.6-1.1 0.8-1.7 0 0 0 0 0 0 0 0 0 0 0-0.1 0.3-0.6 0.5-1.3 0.7-1.9 0 0 0 0 0 0 0-0.1 0.1-0.1 0.1-0.2 0.2-0.7 0.4-1.3 0.5-2 0 0 0 0 0 0 0.1-0.7 0.2-1.4 0.3-2.1 0-0.1 0-0.1 0-0.2 0-0.4 0-0.7 0-1.1 0-0.1 0-0.1 0-0.2C-335.5 249-335.5 248.6-335.6 248.2zM-337.4 244.6C-337.4 244.6-337.4 244.6-337.4 244.6L-337.4 244.6 -337.4 244.6zM-337 246l-0.5 0.9 -0.9-0.5 0.5-0.9L-337 246zM-361.4 262l0.5-0.9 0.9 0.5 -0.5 0.9L-361.4 262zM-360.9 263.4l-0.5 0.9 -0.9-0.5 0.5-0.9L-360.9 263.4zM-339.8 246.8l-0.5 0.9 -0.9-0.5 0.5-0.9L-339.8 246.8zM-340.2 245.4l0.5-0.9 0.9 0.5 -0.5 0.9L-340.2 245.4zM-359.4 258.4l0.5-0.9 0.9 0.5 -0.5 0.9L-359.4 258.4zM-358.9 259.8l-0.5 0.9 -0.9-0.5 0.5-0.9L-358.9 259.8zM-341.8 250.4l-0.5 0.9 -0.9-0.5 0.5-0.9L-341.8 250.4zM-342.3 249l0.5-0.9 0.9 0.5 -0.5 0.9L-342.3 249zM-342.8 252.2l-0.5 0.9 -0.9-0.5 0.5-0.9L-342.8 252.2zM-343.1 248.5l-0.9-0.5 0.5-0.9 0.9 0.5L-343.1 248.5zM-343.6 249.4l-0.5 0.9 -0.9-0.5 0.5-0.9L-343.6 249.4zM-357.3 254.8l0.5-0.9 0.9 0.5 -0.5 0.9L-357.3 254.8zM-356.9 256.2l-0.5 0.9 -0.9-0.5 0.5-0.9L-356.9 256.2zM-356 256.6l0.9 0.5 -0.5 0.9 -0.9-0.5L-356 256.6zM-355.5 255.8l0.5-0.9 0.9 0.5 -0.5 0.9L-355.5 255.8zM-354.5 254l0.5-0.9 0.9 0.5 -0.5 0.9L-354.5 254zM-353.5 252.2l0.5-0.9 0.9 0.5 -0.5 0.9L-353.5 252.2zM-353.2 255.9l0.9 0.5 -0.5 0.9 -0.9-0.5L-353.2 255.9zM-352.7 255l0.5-0.9 0.9 0.5 -0.5 0.9L-352.7 255zM-351.7 253.2l0.5-0.9 0.9 0.5 -0.5 0.9L-351.7 253.2zM-350.7 251.4l0.5-0.9 0.9 0.5 -0.5 0.9L-350.7 251.4zM-350.4 255.1l0.9 0.5 -0.5 0.9 -0.9-0.5L-350.4 255.1zM-349.9 254.2l0.5-0.9 0.9 0.5 -0.5 0.9L-349.9 254.2zM-348.9 252.4l0.5-0.9 0.9 0.5 -0.5 0.9L-348.9 252.4zM-347.9 250.6l0.5-0.9 0.9 0.5 -0.5 0.9L-347.9 250.6zM-347.6 254.3l0.9 0.5 -0.5 0.9 -0.9-0.5L-347.6 254.3zM-347.1 253.4l0.5-0.9 0.9 0.5 -0.5 0.9L-347.1 253.4zM-346.1 251.6l0.5-0.9 0.9 0.5 -0.5 0.9L-346.1 251.6zM-344.9 247.5l-0.9-0.5 0.5-0.9 0.9 0.5L-344.9 247.5zM-345.4 248.4l-0.5 0.9 -0.9-0.5 0.5-0.9L-345.4 248.4zM-346.7 246.5l-0.9-0.5 0.5-0.9 0.9 0.5L-346.7 246.5zM-347.2 247.4l-0.5 0.9 -0.9-0.5 0.5-0.9L-347.2 247.4zM-348.2 249.2l-0.5 0.9 -0.9-0.5 0.5-0.9L-348.2 249.2zM-349.5 247.3l-0.9-0.5 0.5-0.9 0.9 0.5L-349.5 247.3zM-350 248.1l-0.5 0.9 -0.9-0.5 0.5-0.9L-350 248.1zM-351 250l-0.5 0.9 -0.9-0.5 0.5-0.9L-351 250zM-352.4 248.1l-0.9-0.5 0.5-0.9 0.9 0.5L-352.4 248.1zM-352.8 248.9l-0.5 0.9 -0.9-0.5 0.5-0.9L-352.8 248.9zM-353.9 250.7l-0.5 0.9 -0.9-0.5 0.5-0.9L-353.9 250.7zM-354.9 252.6l-0.5 0.9 -0.9-0.5 0.5-0.9L-354.9 252.6zM-356.2 250.7l-0.9-0.5 0.5-0.9 0.9 0.5L-356.2 250.7zM-356.7 251.5l-0.5 0.9 -0.9-0.5 0.5-0.9L-356.7 251.5zM-357.7 253.4l-0.5 0.9 -0.9-0.5 0.5-0.9L-357.7 253.4zM-358.7 255.2l-0.5 0.9 -0.9-0.5 0.5-0.9L-358.7 255.2zM-358 260.3l0.9 0.5 -0.5 0.9 -0.9-0.5L-358 260.3zM-357.6 259.4l0.5-0.9 0.9 0.5 -0.5 0.9L-357.6 259.4zM-356.2 261.3l0.9 0.5 -0.5 0.9 -0.9-0.5L-356.2 261.3zM-355.8 260.4l0.5-0.9 0.9 0.5 -0.5 0.9L-355.8 260.4zM-354.7 258.6l0.5-0.9 0.9 0.5 -0.5 0.9L-354.7 258.6zM-353.4 260.5l0.9 0.5 -0.5 0.9 -0.9-0.5L-353.4 260.5zM-352.9 259.6l0.5-0.9 0.9 0.5 -0.5 0.9L-352.9 259.6zM-351.9 257.8l0.5-0.9 0.9 0.5 -0.5 0.9L-351.9 257.8zM-350.6 259.7l0.9 0.5 -0.5 0.9 -0.9-0.5L-350.6 259.7zM-350.1 258.8l0.5-0.9 0.9 0.5 -0.5 0.9L-350.1 258.8zM-349.1 257l0.5-0.9 0.9 0.5 -0.5 0.9L-349.1 257zM-347.8 258.9l0.9 0.5 -0.5 0.9 -0.9-0.5L-347.8 258.9zM-347.3 258l0.5-0.9 0.9 0.5 -0.5 0.9L-347.3 258zM-346.3 256.2l0.5-0.9 0.9 0.5 -0.5 0.9L-346.3 256.2zM-345.3 254.4l0.5-0.9 0.9 0.5 -0.5 0.9L-345.3 254.4zM-344 256.3l0.9 0.5 -0.5 0.9 -0.9-0.5L-344 256.3zM-343.5 255.4l0.5-0.9 0.9 0.5 -0.5 0.9L-343.5 255.4zM-342.5 253.6l0.5-0.9 0.9 0.5 -0.5 0.9L-342.5 253.6zM-341.5 251.8l0.5-0.9 0.9 0.5 -0.5 0.9L-341.5 251.8zM-340.5 250l0.5-0.9 0.9 0.5 -0.5 0.9L-340.5 250zM-341.1 244.9l-0.9-0.5 0.5-0.9 0.9 0.5L-341.1 244.9zM-341.6 245.8l-0.5 0.9 -0.9-0.5 0.5-0.9L-341.6 245.8zM-342.9 243.9l-0.9-0.5 0.5-0.9 0.9 0.5L-342.9 243.9zM-343.4 244.8l-0.5 0.9 -0.9-0.5 0.5-0.9L-343.4 244.8zM-344.7 242.9l-0.9-0.5 0.5-0.9 0.9 0.5L-344.7 242.9zM-345.2 243.7l-0.5 0.9 -0.9-0.5 0.5-0.9L-345.2 243.7zM-346.5 241.9l-0.9-0.5 0.5-0.9 0.9 0.5L-346.5 241.9zM-347 242.7l-0.5 0.9 -0.9-0.5 0.5-0.9L-347 242.7zM-348 244.5l-0.5 0.9 -0.9-0.5 0.5-0.9L-348 244.5zM-349.3 242.7l-0.9-0.5 0.5-0.9 0.9 0.5L-349.3 242.7zM-349.8 243.5l-0.5 0.9 -0.9-0.5 0.5-0.9L-349.8 243.5zM-350.8 245.3l-0.5 0.9 -0.9-0.5 0.5-0.9L-350.8 245.3zM-352.1 243.5l-0.9-0.5 0.5-0.9 0.9 0.5L-352.1 243.5zM-352.6 244.3l-0.5 0.9 -0.9-0.5 0.5-0.9L-352.6 244.3zM-353.6 246.1l-0.5 0.9 -0.9-0.5 0.5-0.9L-353.6 246.1zM-354.7 247.9l-0.5 0.9 -0.9-0.5 0.5-0.9L-354.7 247.9zM-356 246.1l-0.9-0.5 0.5-0.9 0.9 0.5L-356 246.1zM-356.5 246.9l-0.5 0.9 -0.9-0.5 0.5-0.9L-356.5 246.9zM-357.5 248.7l-0.5 0.9 -0.9-0.5 0.5-0.9L-357.5 248.7zM-358.5 250.5l-0.5 0.9 -0.9-0.5 0.5-0.9L-358.5 250.5zM-359.5 252.3l-0.5 0.9 -0.9-0.5 0.5-0.9L-359.5 252.3zM-360.5 254.1l-0.5 0.9 -0.9-0.5 0.5-0.9L-360.5 254.1zM-360.6 256.4l0.9 0.5 -0.5 0.9 -0.9-0.5L-360.6 256.4zM-360.7 258.8l-0.5 0.9 -0.9-0.5 0.5-0.9L-360.7 258.8zM-360.1 263.9l0.9 0.5 -0.5 0.9 -0.9-0.5L-360.1 263.9zM-359.6 263l0.5-0.9 0.9 0.5 -0.5 0.9L-359.6 263zM-358.3 264.9l0.9 0.5 -0.5 0.9 -0.9-0.5L-358.3 264.9zM-357.8 264l0.5-0.9 0.9 0.5 -0.5 0.9L-357.8 264zM-356.5 265.9l0.9 0.5 -0.5 0.9 -0.9-0.5L-356.5 265.9zM-356 265l0.5-0.9 0.9 0.5 -0.5 0.9L-356 265zM-355 263.2l0.5-0.9 0.9 0.5 -0.5 0.9L-355 263.2zM-353.6 265.1l0.9 0.5 -0.5 0.9 -0.9-0.5L-353.6 265.1zM-353.2 264.2l0.5-0.9 0.9 0.5 -0.5 0.9L-353.2 264.2zM-352.1 262.4l0.5-0.9 0.9 0.5 -0.5 0.9L-352.1 262.4zM-350.8 264.3l0.9 0.5 -0.5 0.9 -0.9-0.5L-350.8 264.3zM-350.3 263.4l0.5-0.9 0.9 0.5 -0.5 0.9L-350.3 263.4zM-349.3 261.6l0.5-0.9 0.9 0.5 -0.5 0.9L-349.3 261.6zM-348 263.5l0.9 0.5 -0.5 0.9 -0.9-0.5L-348 263.5zM-347.5 262.6l0.5-0.9 0.9 0.5 -0.5 0.9L-347.5 262.6zM-346.5 260.8l0.5-0.9 0.9 0.5 -0.5 0.9L-346.5 260.8zM-345.5 259l0.5-0.9 0.9 0.5 -0.5 0.9L-345.5 259zM-344.2 260.9l0.9 0.5 -0.5 0.9 -0.9-0.5L-344.2 260.9zM-343.7 260l0.5-0.9 0.9 0.5 -0.5 0.9L-343.7 260zM-342.7 258.2l0.5-0.9 0.9 0.5 -0.5 0.9L-342.7 258.2zM-341.7 256.4l0.5-0.9 0.9 0.5 -0.5 0.9L-341.7 256.4zM-340.7 254.6l0.5-0.9 0.9 0.5 -0.5 0.9L-340.7 254.6zM-339.7 252.8l0.5-0.9 0.9 0.5 -0.5 0.9L-339.7 252.8zM-338.6 251l0.5-0.9 0.9 0.5 -0.5 0.9L-338.6 251zM-338.5 248.7l-0.9-0.5 0.5-0.9 0.9 0.5L-338.5 248.7zM-338.7 242.6l0.5 0.3c0.1 0.2 0.2 0.4 0.3 0.5l-0.4 0.7 -0.9-0.5L-338.7 242.6zM-340 240.7c0.1 0.1 0.2 0.2 0.3 0.3l-0.3-0.2L-340 240.7zM-339.6 242.2l-0.5 0.9 -0.9-0.5 0.5-0.9L-339.6 242.2zM-341.6 239.4c0.3 0.2 0.6 0.4 0.9 0.6l-0.2 0.3 -0.9-0.5L-341.6 239.4zM-341.4 241.1l-0.5 0.9 -0.9-0.5 0.5-0.9L-341.4 241.1zM-343.5 238.5c0.3 0.1 0.7 0.3 1 0.4l-0.2 0.4 -0.9-0.5L-343.5 238.5zM-343.2 240.1l-0.5 0.9 -0.9-0.5 0.5-0.9L-343.2 240.1zM-344.4 238.1l-0.1 0.1 -0.3-0.2C-344.7 238.1-344.6 238.1-344.4 238.1zM-345.9 238.6l0.9 0.5 -0.5 0.9 -0.9-0.5L-345.9 238.6zM-347.9 237.9c0.2 0 0.4 0 0.6 0l0.5 0.3 -0.5 0.9 -0.9-0.5L-347.9 237.9zM-349.1 238L-349.1 238 -349.1 238C-349.1 238-349.1 238-349.1 238zM-348.7 239.4l0.9 0.5 -0.5 0.9 -0.9-0.5L-348.7 239.4zM-350.5 238.4l0.9 0.5 -0.5 0.9 -0.9-0.5L-350.5 238.4zM-351.6 240.2l0.9 0.5 -0.5 0.9 -0.9-0.5L-351.6 240.2zM-353.7 239.7c0.2-0.1 0.4-0.2 0.7-0.4l0.6 0.3 -0.5 0.9 -0.9-0.5L-353.7 239.7zM-354.4 241l0.9 0.5 -0.5 0.9 -0.9-0.5L-354.4 241zM-355.4 242.8l0.9 0.5 -0.5 0.9 -0.9-0.5L-355.4 242.8zM-355.5 241l-0.3 0.5 -0.2-0.1C-355.8 241.2-355.6 241.1-355.5 241zM-356.7 242l0.5 0.3 -0.5 0.9 -0.8-0.4C-357.3 242.5-357 242.3-356.7 242zM-358.2 243.6l0.9 0.5 -0.5 0.9 -1.1-0.6C-358.7 244.1-358.4 243.9-358.2 243.6zM-359.4 245.3l1.2 0.7 -0.5 0.9 -1.2-0.7C-359.8 245.9-359.6 245.6-359.4 245.3zM-360.5 247l1.2 0.7 -0.5 0.9 -1.2-0.6C-360.8 247.7-360.6 247.4-360.5 247zM-361.3 248.9l1.1 0.6 -0.5 0.9 -0.9-0.5C-361.6 249.6-361.5 249.3-361.3 248.9zM-362.1 250.9l0.8 0.4 -0.5 0.9 -0.5-0.3C-362.3 251.6-362.2 251.3-362.1 250.9zM-362.6 253l0.3 0.2 -0.5 0.9 0 0C-362.8 253.7-362.7 253.3-362.6 253zM-362.4 255.4l0.9 0.5 -0.5 0.9 -0.9-0.5L-362.4 255.4zM-363.3 257.3l0.7 0.4 -0.5 0.9 -0.3-0.2C-363.3 258.1-363.3 257.7-363.3 257.3zM-363 262.9c0-0.2-0.1-0.5-0.1-0.8l0.4 0.2L-363 262.9zM-363.2 261l0.5-0.9 0.9 0.5 -0.5 0.9L-363.2 261zM-362.2 265.7c-0.1-0.3-0.2-0.6-0.3-0.9l0.6 0.4L-362.2 265.7zM-361.6 266.6l0.5-0.9 0.9 0.5 -0.5 0.9L-361.6 266.6zM-359.5 269.4c-0.3-0.2-0.6-0.4-0.8-0.7l0.1-0.2 0.9 0.5L-359.5 269.4zM-359.8 267.6l0.5-0.9 0.9 0.5 -0.5 0.9L-359.8 267.6zM-357.6 270.2c-0.4-0.1-0.7-0.2-1-0.4l0.2-0.4 0.9 0.5L-357.6 270.2zM-357 269.2l-0.9-0.5 0.5-0.9 0.9 0.5L-357 269.2zM-355.2 270.2l-0.9-0.5 0.5-0.9 0.9 0.5L-355.2 270.2zM-355.2 267.8l0.5-0.9 0.9 0.5 -0.5 0.9L-355.2 267.8zM-354.2 270.3l0.3-0.6 0.6 0.4C-353.5 270.1-353.9 270.2-354.2 270.3zM-352.4 269.4l-0.9-0.5 0.5-0.9 0.9 0.5L-352.4 269.4zM-352.4 267l0.5-0.9 0.9 0.5 -0.5 0.9L-352.4 267zM-351.3 269.5l0.3-0.5 0.4 0.2C-350.9 269.3-351.1 269.4-351.3 269.5zM-349.6 268.6l-0.9-0.5 0.5-0.9 0.9 0.5L-349.6 268.6zM-348.6 266.8l-0.9-0.5 0.5-0.9 0.9 0.5L-348.6 266.8zM-347.4 267.4l-0.3-0.2 0.5-0.9 0.8 0.4C-346.8 267-347.1 267.2-347.4 267.4zM-345.8 266l-0.9-0.5 0.5-0.9 0.9 0.5L-345.8 266zM-344.8 264.2l-0.9-0.5 0.5-0.9 0.9 0.5L-344.8 264.2zM-343.9 264.7L-343.9 264.7l0.5-1 0.3 0.2C-343.3 264.2-343.6 264.4-343.9 264.7zM-342.3 263.2l-0.6-0.3 0.5-0.9 0.8 0.4C-341.8 262.6-342.1 262.9-342.3 263.2zM-341 261.6l-0.9-0.5 0.5-0.9 1.1 0.6C-340.5 261-340.7 261.3-341 261.6zM-339.7 259.9l-1.2-0.6 0.5-0.9 1.2 0.7C-339.3 259.3-339.5 259.6-339.7 259.9zM-338.7 258.1l-1.2-0.7 0.5-0.9 1.2 0.7C-338.3 257.5-338.5 257.8-338.7 258.1zM-337.8 256.2l-1.1-0.6 0.5-0.9 0.9 0.5C-337.5 255.6-337.6 255.9-337.8 256.2zM-337.1 254.3l-0.8-0.4 0.5-0.9 0.5 0.3C-336.9 253.5-337 253.9-337.1 254.3zM-336.7 252.1l-0.2-0.1 0.3-0.5C-336.6 251.7-336.6 251.9-336.7 252.1zM-336.7 249.7l-0.9-0.5 0.5-0.9 0.6 0.3c0 0.2 0 0.5 0 0.7L-336.7 249.7z"/><path d="M-383.8 292l-7-12.5c-0.1-0.2-0.4-0.3-0.7-0.2l-0.1 0c-2.8-8.1-1-15.6-1-15.7 0-0.1 0-0.2 0-0.2 1-5.7-0.1-12.9-3.1-18.2 -3.4-6-9.4-9.9-15.3-9.9 -2.2 0-4.3 0.5-6.2 1.6 -3.4 1.9-5.8 5.4-6.6 9.7 -0.8 4.3 0.1 8.9 2.4 13 3.1 5.5 8.6 10.2 14 12.2 0 0 0 0 0.1 0 0.1 0 7.4 2.5 12.9 9.1l-0.1 0c-0.1 0.1-0.2 0.2-0.2 0.3 0 0.1 0 0.3 0 0.4l7 12.5c0.9 1.6 1.6 3.3 2.2 5 0.2 0.6 0.6 1 1.2 1.3 0.2 0.1 0.5 0.1 0.7 0.1l0 0c0.3 0 0.7-0.1 1-0.3l1.2-0.7c0.5-0.3 0.9-0.8 1-1.4 0.1-0.6-0.1-1.2-0.4-1.7C-381.9 295.2-382.9 293.6-383.8 292zM-407 270.9C-407 270.9-407 270.9-407 270.9c-5.1-1.9-10.5-6.5-13.5-11.8 -2.2-3.9-3-8.3-2.3-12.3 0.7-4 2.9-7.2 6.1-9 1.7-1 3.7-1.5 5.7-1.5 5.6 0 11.2 3.7 14.4 9.4 2.9 5.1 4 12.2 3 17.7 0 0 0 0 0 0 0 0.1-0.1 0.3-0.1 0.7 -0.7 3.1-2.2 5.6-4.5 6.9 -1.1 0.6-2.5 1-3.9 1l0 0c-1.5 0-3.1-0.3-4.7-0.9C-406.9 271-407 270.9-407 270.9zM-402.7 272.9c0.2 0 0.4 0 0.6 0l0 0c1.6 0 3.1-0.4 4.4-1.1 1.5-0.8 2.7-2.2 3.5-3.8 -0.1 3.1 0.1 7.3 1.7 11.8l-1.1 0.6C-396.6 276.8-400.1 274.4-402.7 272.9zM-393.6 281.6l2.1-1.2 0.3 0.5 -1.8 1.9L-393.6 281.6zM-392.4 283.7l1.8-1.8 0.7 1.2 -1.8 1.7L-392.4 283.7zM-391.3 285.6l1.8-1.7 1 1.7 -2.5 0.4L-391.3 285.6zM-390.6 287l2.4-0.4c0 0 0.1 0 0.1 0l0.4 0.8c-0.1 0-0.1 0-0.1 0.1l-1.9 1.3L-390.6 287zM-389.2 289.5l2-1.3c0 0 0 0 0.1-0.1l0.8 1.5 -2.7 0.1L-389.2 289.5zM-388.5 290.7l2.4-0.1c0.1 0 0.2-0.1 0.3-0.1l0.8 1.3 -2.1 1.2L-388.5 290.7zM-386.7 293.9l2.1-1.2c0.3 0.5 0.6 1 0.9 1.4l-2.6 0.6C-386.4 294.4-386.6 294.2-386.7 293.9zM-385.9 295.6l2.7-0.6c0.2 0.3 0.4 0.5 0.6 0.8 0 0-0.1 0-0.1 0.1 -0.6 0.8-1.4 1.5-2.3 2C-385.2 297-385.5 296.3-385.9 295.6zM-381.8 298.8l-1.2 0.7c-0.2 0.1-0.3 0.1-0.5 0.1 -0.1 0-0.3 0-0.4-0.1 -0.3-0.1-0.5-0.4-0.6-0.7 0-0.1 0-0.1-0.1-0.2 1-0.5 1.9-1.3 2.6-2.2 0.2 0.2 0.3 0.4 0.5 0.7 0.2 0.2 0.3 0.6 0.2 0.9C-381.3 298.4-381.5 298.7-381.8 298.8z"/><path d="M-400.6 271.3C-400.6 271.3-400.6 271.3-400.6 271.3c0 0 0.1 0 0.1 0 0.8-0.1 1.5-0.4 2.1-0.7 0.6-0.3 1.1-0.8 1.6-1.3 0 0 0 0 0 0 0.1 0 0.1-0.1 0.2-0.2 0.5-0.5 0.9-1.2 1.3-1.9 0.1-0.1 0.1-0.1 0.1-0.2 0.3-0.7 0.6-1.5 0.9-2.4 0-0.1 0.1-0.2 0.1-0.3 0-0.1 0-0.2 0.1-0.2 0-0.1 0-0.1 0-0.2 0.2-0.8 0.3-1.6 0.4-2.5 0-0.1 0-0.1 0-0.2 0 0 0 0 0 0 0-0.1 0-0.2 0-0.2 0-0.4 0.1-0.7 0.1-1.1 0-0.3 0-0.6 0-1 0-0.1 0-0.1 0-0.2 0-0.7 0-1.4-0.1-2.1 0 0 0-0.1 0-0.1 -0.1-1.5-0.4-3-0.8-4.4 0 0 0 0 0 0 -0.2-0.7-0.4-1.3-0.6-2 0-0.1 0-0.1-0.1-0.2 0 0 0 0 0 0 -0.2-0.6-0.5-1.2-0.7-1.8 0 0 0-0.1 0-0.1 0 0 0 0 0 0 -0.3-0.6-0.6-1.2-0.9-1.8 0 0 0 0 0 0 0 0 0 0 0 0 0 0 0-0.1-0.1-0.1 -0.3-0.5-0.6-1.1-1-1.6 0 0 0 0 0 0 0 0 0 0 0-0.1 -0.4-0.6-0.8-1.1-1.2-1.6 0 0 0 0 0 0 0-0.1-0.1-0.1-0.1-0.2 -0.5-0.5-0.9-1-1.4-1.4 0 0-0.1-0.1-0.1-0.1 -0.5-0.5-1.1-0.9-1.7-1.3 0 0-0.1-0.1-0.1-0.1 -0.3-0.2-0.6-0.4-0.9-0.6 0 0-0.1 0-0.1-0.1 -0.3-0.2-0.6-0.3-0.9-0.5 0 0-0.1 0-0.1 0 -0.7-0.4-1.5-0.7-2.2-0.9 0 0 0 0 0 0 -0.1 0-0.2-0.1-0.3-0.1 0 0-0.1 0-0.1 0 -1.2-0.3-2.4-0.5-3.6-0.5 -0.4 0-0.8 0-1.2 0.1 0 0-0.1 0-0.1 0 -0.7 0.1-1.4 0.2-2.1 0.4 -0.1 0-0.1 0-0.2 0.1 0 0 0 0 0 0 -0.6 0.2-1.3 0.5-1.9 0.8 -0.6 0.3-1.2 0.7-1.7 1.2 0 0 0 0 0 0 -0.1 0-0.1 0.1-0.2 0.1 -0.5 0.5-1 1-1.4 1.5 0 0-0.1 0.1-0.1 0.1 -0.2 0.3-0.5 0.7-0.7 1 -0.1 0.1-0.1 0.1-0.1 0.2 -0.1 0.3-0.3 0.5-0.4 0.8 0 0-0.1 0.1-0.1 0.1 -0.3 0.7-0.6 1.4-0.8 2.2 0 0 0 0 0 0.1 0 0.1 0 0.2-0.1 0.3 0 0 0 0.1 0 0.1 -0.2 0.7-0.3 1.4-0.4 2.2 0 0 0 0 0 0.1 0 0.4 0 0.7-0.1 1.1 0 0.1 0 0.1 0 0.2 0 0.4 0 0.7 0 1.1 0 0.1 0 0.1 0 0.2 0 0.7 0.1 1.4 0.3 2.1 0 0 0 0 0 0 0.1 0.7 0.3 1.4 0.5 2 0 0.1 0 0.1 0.1 0.2 0 0 0 0 0 0 0.2 0.6 0.4 1.3 0.7 1.9 0 0 0 0.1 0 0.1 0 0 0 0 0 0 0.3 0.6 0.5 1.1 0.8 1.7 0 0 0.1 0.1 0.1 0.1 0 0 0 0 0 0 0 0 0 0 0 0 0.3 0.6 0.7 1.2 1.1 1.7 0 0 0 0 0 0 0 0 0 0 0 0 1.7 2.4 3.8 4.6 6.2 6.3 0 0 0.1 0.1 0.1 0.1 0.6 0.4 1.1 0.8 1.7 1.2 0 0 0.1 0.1 0.1 0.1 0.6 0.4 1.2 0.7 1.8 1 0.1 0 0.1 0.1 0.2 0.1 0 0 0 0 0 0 0.1 0 0.1 0.1 0.2 0.1 0.8 0.4 1.5 0.7 2.3 1 0.1 0.1 0.2 0.1 0.2 0.1 0.1 0 0.2 0.1 0.2 0.1 0 0 0.1 0 0.1 0 1.3 0.4 2.5 0.6 3.6 0.6C-401.6 271.4-401.1 271.4-400.6 271.3zM-401 269.2l-0.5-0.9 0.9-0.5 0.5 0.9L-401 269.2zM-397.6 262.5l-0.5-0.9 0.9-0.5 0.5 0.9L-397.6 262.5zM-396.1 262.9l0.5 0.9 -0.9 0.5 -0.5-0.9L-396.1 262.9zM-417.1 250.9l0.5 0.9 -0.9 0.5 -0.5-0.9L-417.1 250.9zM-418.5 250.5l-0.5-0.9 0.9-0.5 0.5 0.9L-418.5 250.5zM-399.6 258.9l-0.5-0.9 0.9-0.5 0.5 0.9L-399.6 258.9zM-398.2 259.3l0.5 0.9 -0.9 0.5 -0.5-0.9L-398.2 259.3zM-411.4 252.5l0.5 0.9 -0.9 0.5 -0.5-0.9L-411.4 252.5zM-412.9 252.1l-0.5-0.9 0.9-0.5 0.5 0.9L-412.9 252.1zM-411.6 250.2l0.9-0.5 0.5 0.9 -0.9 0.5L-411.6 250.2zM-410.4 254.3l0.5 0.9 -0.9 0.5 -0.5-0.9L-410.4 254.3zM-410 252.9l-0.5-0.9 0.9-0.5 0.5 0.9L-410 252.9zM-408.6 253.3l0.5 0.9 -0.9 0.5 -0.5-0.9L-408.6 253.3zM-408.8 251l0.9-0.5 0.5 0.9 -0.9 0.5L-408.8 251zM-407.6 255.1l0.5 0.9 -0.9 0.5 -0.5-0.9L-407.6 255.1zM-407.2 253.7l-0.5-0.9 0.9-0.5 0.5 0.9L-407.2 253.7zM-405.8 254l0.5 0.9 -0.9 0.5 -0.5-0.9L-405.8 254zM-405.9 251.8l0.9-0.5 0.5 0.9 -0.9 0.5L-405.9 251.8zM-404.8 255.9l0.5 0.9 -0.9 0.5 -0.5-0.9L-404.8 255.9zM-404.4 254.5l-0.5-0.9 0.9-0.5 0.5 0.9L-404.4 254.5zM-403 254.8l0.5 0.9 -0.9 0.5 -0.5-0.9L-403 254.8zM-402 256.6l0.5 0.9 -0.9 0.5 -0.5-0.9L-402 256.6zM-401.6 255.3l-0.5-0.9 0.9-0.5 0.5 0.9L-401.6 255.3zM-400.2 255.6l0.5 0.9 -0.9 0.5 -0.5-0.9L-400.2 255.6zM-401 258.5l0.5 0.9 -0.9 0.5 -0.5-0.9L-401 258.5zM-400 260.3l0.5 0.9 -0.9 0.5 -0.5-0.9L-400 260.3zM-398.8 256.1l-0.5-0.9 0.9-0.5 0.5 0.9L-398.8 256.1zM-399.8 254.3l-0.5-0.9 0.9-0.5 0.5 0.9L-399.8 254.3zM-400.8 252.5l-0.5-0.9 0.9-0.5 0.5 0.9L-400.8 252.5zM-401.8 250.7l-0.5-0.9 0.9-0.5 0.5 0.9L-401.8 250.7zM-402.2 252l0.5 0.9 -0.9 0.5 -0.5-0.9L-402.2 252zM-403.6 251.7l-0.5-0.9 0.9-0.5 0.5 0.9L-403.6 251.7zM-404.6 249.9l-0.5-0.9 0.9-0.5 0.5 0.9L-404.6 249.9zM-405.6 248.1l-0.5-0.9 0.9-0.5 0.5 0.9L-405.6 248.1zM-406 249.4l0.5 0.9 -0.9 0.5 -0.5-0.9L-406 249.4zM-407.4 249.1l-0.5-0.9 0.9-0.5 0.5 0.9L-407.4 249.1zM-408.5 247.3l-0.5-0.9 0.9-0.5 0.5 0.9L-408.5 247.3zM-408.8 248.6l0.5 0.9 -0.9 0.5 -0.5-0.9L-408.8 248.6zM-410.3 248.3l-0.5-0.9 0.9-0.5 0.5 0.9L-410.3 248.3zM-411.3 246.5l-0.5-0.9 0.9-0.5 0.5 0.9L-411.3 246.5zM-411.6 247.8l0.5 0.9 -0.9 0.5 -0.5-0.9L-411.6 247.8zM-413.1 247.5l-0.5-0.9 0.9-0.5 0.5 0.9L-413.1 247.5zM-413.5 248.8l0.5 0.9 -0.9 0.5 -0.5-0.9L-413.5 248.8zM-413.7 252.6l-0.9 0.5 -0.5-0.9 0.9-0.5L-413.7 252.6zM-414.9 248.5l-0.5-0.9 0.9-0.5 0.5 0.9L-414.9 248.5zM-415.3 249.9l0.5 0.9 -0.9 0.5 -0.5-0.9L-415.3 249.9zM-416.7 249.5l-0.5-0.9 0.9-0.5 0.5 0.9L-416.7 249.5zM-416.1 252.7l0.5 0.9 -0.9 0.5 -0.5-0.9L-416.1 252.7zM-415 254.5l0.5 0.9 -0.9 0.5 -0.5-0.9L-415 254.5zM-414 256.3l0.5 0.9 -0.9 0.5 -0.5-0.9L-414 256.3zM-413.7 254.9l-0.5-0.9 0.9-0.5 0.5 0.9L-413.7 254.9zM-412.2 255.3l0.5 0.9 -0.9 0.5 -0.5-0.9L-412.2 255.3zM-411.2 257.1l0.5 0.9 -0.9 0.5 -0.5-0.9L-411.2 257.1zM-410.2 258.9l0.5 0.9 -0.9 0.5 -0.5-0.9L-410.2 258.9zM-409.8 257.5l-0.5-0.9 0.9-0.5 0.5 0.9L-409.8 257.5zM-408.4 257.9l0.5 0.9 -0.9 0.5 -0.5-0.9L-408.4 257.9zM-407.4 259.7l0.5 0.9 -0.9 0.5 -0.5-0.9L-407.4 259.7zM-407 258.3l-0.5-0.9 0.9-0.5 0.5 0.9L-407 258.3zM-405.6 258.7l0.5 0.9 -0.9 0.5 -0.5-0.9L-405.6 258.7zM-404.6 260.5l0.5 0.9 -0.9 0.5 -0.5-0.9L-404.6 260.5zM-404.2 259.1l-0.5-0.9 0.9-0.5 0.5 0.9L-404.2 259.1zM-402.8 259.5l0.5 0.9 -0.9 0.5 -0.5-0.9L-402.8 259.5zM-401.8 261.3l0.5 0.9 -0.9 0.5 -0.5-0.9L-401.8 261.3zM-400.8 263.1l0.5 0.9 -0.9 0.5 -0.5-0.9L-400.8 263.1zM-399.7 264.9l0.5 0.9 -0.9 0.5 -0.5-0.9L-399.7 264.9zM-399.4 263.5l-0.5-0.9 0.9-0.5 0.5 0.9L-399.4 263.5zM-397.9 263.9l0.5 0.9 -0.9 0.5 -0.5-0.9L-397.9 263.9zM-396.8 259.7l-0.5-0.9 0.9-0.5 0.5 0.9L-396.8 259.7zM-397.8 257.9l-0.5-0.9 0.9-0.5 0.5 0.9L-397.8 257.9zM-397 255.1l-0.5-0.9 0.9-0.5 0.5 0.9L-397 255.1zM-398 253.3l-0.5-0.9 0.9-0.5 0.5 0.9L-398 253.3zM-399 251.5l-0.5-0.9 0.9-0.5 0.5 0.9L-399 251.5zM-400 249.7l-0.5-0.9 0.9-0.5 0.5 0.9L-400 249.7zM-401 247.9l-0.5-0.9 0.9-0.5 0.5 0.9L-401 247.9zM-402 246.1l-0.5-0.9 0.9-0.5 0.5 0.9L-402 246.1zM-402.4 247.4l0.5 0.9 -0.9 0.5 -0.5-0.9L-402.4 247.4zM-403.8 247.1l-0.5-0.9 0.9-0.5 0.5 0.9L-403.8 247.1zM-404.8 245.3l-0.5-0.9 0.9-0.5 0.5 0.9L-404.8 245.3zM-405.9 243.5l-0.5-0.9 0.9-0.5 0.5 0.9L-405.9 243.5zM-406.2 244.8l0.5 0.9 -0.9 0.5 -0.5-0.9L-406.2 244.8zM-407.7 244.5l-0.5-0.9 0.9-0.5 0.5 0.9L-407.7 244.5zM-408.7 242.7l-0.5-0.9 0.9-0.5 0.5 0.9L-408.7 242.7zM-409 244l0.5 0.9 -0.9 0.5 -0.5-0.9L-409 244zM-410.5 243.7l-0.5-0.9 0.9-0.5 0.5 0.9L-410.5 243.7zM-411.5 241.9l-0.5-0.9 0.9-0.5 0.5 0.9L-411.5 241.9zM-411.9 243.2l0.5 0.9 -0.9 0.5 -0.5-0.9L-411.9 243.2zM-413.3 242.9l-0.5-0.9 0.9-0.5 0.5 0.9L-413.3 242.9zM-413.7 244.2l0.5 0.9 -0.9 0.5 -0.5-0.9L-413.7 244.2zM-415.1 243.9l-0.5-0.9 0.9-0.5 0.5 0.9L-415.1 243.9zM-415.5 245.2l0.5 0.9 -0.9 0.5 -0.5-0.9L-415.5 245.2zM-416.9 244.9l-0.5-0.9 0.9-0.5 0.5 0.9L-416.9 244.9zM-417.3 246.2l0.5 0.9 -0.9 0.5 -0.5-0.9L-417.3 246.2zM-418.7 245.9l-0.5-0.9 0.9-0.5 0.5 0.9L-418.7 245.9zM-419.1 247.3l0.5 0.9 -0.9 0.5 -0.5-0.9L-419.1 247.3zM-419.9 250.1l0.5 0.9 -0.9 0.5 -0.5-0.9L-419.9 250.1zM-418.9 251.9l0.5 0.9 -0.9 0.5 -0.5-0.9L-418.9 251.9zM-417.9 253.7l0.5 0.9 -0.9 0.5 -0.5-0.9L-417.9 253.7zM-416.9 255.5l0.5 0.9 -0.9 0.5 -0.5-0.9L-416.9 255.5zM-415.8 257.3l0.5 0.9 -0.9 0.5 -0.5-0.9L-415.8 257.3zM-414.8 259.1l0.5 0.9 -0.9 0.5 -0.5-0.9L-414.8 259.1zM-413.8 260.9l0.5 0.9 -0.9 0.5 -0.5-0.9L-413.8 260.9zM-413.4 259.6l-0.5-0.9 0.9-0.5 0.5 0.9L-413.4 259.6zM-412 259.9l0.5 0.9 -0.9 0.5 -0.5-0.9L-412 259.9zM-411 261.7l0.5 0.9 -0.9 0.5 -0.5-0.9L-411 261.7zM-410 263.5l0.5 0.9 -0.9 0.5 -0.5-0.9L-410 263.5zM-409.6 262.2l-0.5-0.9 0.9-0.5 0.5 0.9L-409.6 262.2zM-408.2 262.5l0.5 0.9 -0.9 0.5 -0.5-0.9L-408.2 262.5zM-407.2 264.3l0.5 0.9 -0.9 0.5 -0.5-0.9L-407.2 264.3zM-406.8 263l-0.5-0.9 0.9-0.5 0.5 0.9L-406.8 263zM-405.4 263.3l0.5 0.9 -0.9 0.5 -0.5-0.9L-405.4 263.3zM-404.4 265.1l0.5 0.9 -0.9 0.5 -0.5-0.9L-404.4 265.1zM-404 263.8l-0.5-0.9 0.9-0.5 0.5 0.9L-404 263.8zM-402.6 264.1l0.5 0.9 -0.9 0.5 -0.5-0.9L-402.6 264.1zM-401.5 265.9l0.5 0.9 -0.9 0.5 -0.5-0.9L-401.5 265.9zM-400.4 270.2l-0.1-0.2 0.9-0.5 0.2 0.4C-399.6 270-400 270.2-400.4 270.2zM-399.7 267.2l0.9-0.5 0.5 0.9 -0.9 0.5L-399.7 267.2zM-398.5 269.4l-0.2-0.4 0.9-0.5 0.1 0.2C-397.9 268.9-398.2 269.2-398.5 269.4zM-397.3 267.1l-0.5-0.9 0.9-0.5 0.5 0.9L-397.3 267.1zM-395.8 265.7l-0.3-0.5 0.6-0.4C-395.5 265.2-395.6 265.5-395.8 265.7zM-395 262.9l-0.3-0.5 0.4-0.2C-394.9 262.4-394.9 262.7-395 262.9zM-395.8 261.5l-0.5-0.9 0.9-0.5 0.5 0.9L-395.8 261.5zM-394.7 258.5l-0.3 0.2 -0.5-0.9 0.7-0.4C-394.7 257.7-394.7 258.1-394.7 258.5zM-396 256.9l-0.5-0.9 0.9-0.5 0.5 0.9L-396 256.9zM-395.2 254.1L-395.2 254.1l-0.5-0.9 0.3-0.2C-395.3 253.3-395.2 253.7-395.2 254.1zM-395.9 250.9c0.1 0.4 0.2 0.7 0.3 1.1l-0.5 0.3 -0.5-0.9L-395.9 250.9zM-396.7 248.9c0.1 0.3 0.3 0.7 0.4 1l-0.9 0.5 -0.5-0.9L-396.7 248.9zM-397.5 247c0.2 0.3 0.3 0.6 0.5 1l-1.2 0.6 -0.5-0.9L-397.5 247zM-398 246.2l-1.2 0.7 -0.5-0.9 1.2-0.7C-398.4 245.6-398.2 245.9-398 246.2zM-399.1 244.4l-1.1 0.6 -0.5-0.9 0.9-0.5C-399.6 243.9-399.3 244.1-399.1 244.4zM-401.3 242c0.3 0.3 0.5 0.5 0.8 0.8l-0.8 0.4 -0.5-0.9L-401.3 242zM-402 241.3l-0.2 0.1 -0.3-0.5C-402.4 241.1-402.2 241.2-402 241.3zM-402.6 242.8l0.5 0.9 -0.9 0.5 -0.5-0.9L-402.6 242.8zM-403.6 241l0.5 0.9 -0.9 0.5 -0.5-0.9L-403.6 241zM-405 239.4c0.2 0.1 0.4 0.2 0.7 0.4l0.2 0.4 -0.9 0.5 -0.5-0.9L-405 239.4zM-405.9 241.1l-0.9 0.5 -0.5-0.9 0.9-0.5L-405.9 241.1zM-407.5 238.4l0.5 0.9 -0.9 0.5 -0.5-0.9L-407.5 238.4zM-408.8 238L-408.8 238 -408.8 238C-408.9 238-408.9 238-408.8 238zM-408.7 240.3l-0.9 0.5 -0.5-0.9 0.9-0.5L-408.7 240.3zM-410.7 237.8c0.2 0 0.4 0 0.6 0l0.4 0.7 -0.9 0.5 -0.5-0.9L-410.7 237.8zM-412.1 238.6l0.5 0.9 -0.9 0.5 -0.5-0.9L-412.1 238.6zM-413.2 238.1l-0.3 0.2 -0.1-0.1C-413.4 238.1-413.3 238.1-413.2 238.1zM-413.9 239.6l0.5 0.9 -0.9 0.5 -0.5-0.9L-413.9 239.6zM-414.5 238.5l0.2 0.3 -0.9 0.5 -0.2-0.4C-415.2 238.7-414.9 238.6-414.5 238.5zM-415.2 241.6l-0.9 0.5 -0.5-0.9 0.9-0.5L-415.2 241.6zM-416.4 239.4l0.2 0.4 -0.9 0.5 -0.2-0.3C-417 239.8-416.7 239.6-416.4 239.4zM-418 240.7l0.1 0.1 -0.3 0.2C-418.2 240.9-418.1 240.7-418 240.7zM-417.5 241.6l0.5 0.9 -0.9 0.5 -0.5-0.9L-417.5 241.6zM-419.8 242.9l0.5-0.3 0.5 0.9 -0.9 0.5 -0.4-0.7C-420 243.3-419.9 243.1-419.8 242.9zM-420.6 244.6L-420.6 244.6 -420.6 244.6C-420.6 244.6-420.6 244.6-420.6 244.6zM-420.1 245.4l0.5 0.9 -0.9 0.5 -0.5-0.9L-420.1 245.4zM-421.5 248.6l0.6-0.3 0.5 0.9 -0.9 0.5 -0.2-0.4C-421.5 249.1-421.5 248.9-421.5 248.6zM-421.4 251.5l0.3 0.5 -0.2 0.1C-421.4 251.9-421.4 251.7-421.4 251.5zM-420.9 254.3c-0.1-0.4-0.2-0.7-0.3-1.1l0.5-0.3 0.5 0.9L-420.9 254.3zM-420.2 256.2c-0.1-0.3-0.3-0.7-0.4-1l0.9-0.5 0.5 0.9L-420.2 256.2zM-419.3 258.1c-0.2-0.3-0.3-0.6-0.5-1l1.2-0.7 0.5 0.9L-419.3 258.1zM-418.9 259l1.2-0.7 0.5 0.9 -1.2 0.6C-418.5 259.6-418.7 259.3-418.9 259zM-417.7 260.7l1.1-0.6 0.5 0.9 -0.9 0.5C-417.3 261.3-417.5 261-417.7 260.7zM-415.7 263.2c-0.3-0.3-0.5-0.5-0.7-0.8l0.8-0.4 0.5 0.9L-415.7 263.2zM-414.1 264.7c-0.3-0.3-0.6-0.5-0.8-0.8l0.3-0.2L-414.1 264.7 -414.1 264.7zM-413.8 263.2l0.9-0.5 0.5 0.9 -0.9 0.5L-413.8 263.2zM-412.7 265l0.9-0.5 0.5 0.9 -0.9 0.5L-412.7 265zM-410.6 267.4c-0.3-0.2-0.7-0.4-1-0.7l0.8-0.4 0.5 0.9L-410.6 267.4zM-409.4 266.8l-0.5-0.9 0.9-0.5 0.5 0.9L-409.4 266.8zM-408.4 268.6l-0.5-0.9 0.9-0.5 0.5 0.9L-408.4 268.6zM-407.4 269.2l0.4-0.2 0.3 0.5C-406.9 269.4-407.1 269.3-407.4 269.2zM-406.6 267.6l-0.5-0.9 0.9-0.5 0.5 0.9L-406.6 267.6zM-406.1 268.4l0.9-0.5 0.5 0.9 -0.9 0.5L-406.1 268.4zM-404.8 270.1l0.6-0.4 0.3 0.6C-404.1 270.2-404.5 270.1-404.8 270.1zM-404.3 267.4l0.9-0.5 0.5 0.9 -0.9 0.5L-404.3 267.4zM-403.3 269.2l0.9-0.5 0.5 0.9 -0.9 0.5L-403.3 269.2z"/></svg>