<svg xmlns="http://www.w3.org/2000/svg" viewBox="-216.9 -38 499.8 508"><path d="M-20.2 60.3h-98.3v131.1h98.3V60.3zM-36.6 175h-65.5V76.7h65.5V175z"/><rect x="12.5" y="60.3" width="114.7" height="16.4"/><rect x="12.5" y="117.7" width="114.7" height="16.4"/><rect x="12.5" y="175" width="114.7" height="16.4"/><rect x="-118.6" y="232.4" width="245.8" height="16.4"/><rect x="-118.6" y="289.7" width="188.5" height="16.4"/><rect x="-118.6" y="388.1" width="114.7" height="16.4"/><path d="M270.9 187c-13.7-13.6-40.2-17.8-57.9 0l-36.6 36.6V11.2h-49.2V-38h-344.1v458.8h49.2V470h344.1V339.5l94.5-94.5C286.9 229 286.9 203 270.9 187zM-167.7 404.5h-32.8V-21.6h311.4v32.8h-278.6V404.5zM160 453.6h-311.3V27.5H160V240L25.8 374.2l-14.5 72.4 72.4-14.5 76.2-76.3L160 453.6 160 453.6zM45 378.2L68.2 355l34.8 34.8L79.7 413 45 378.2zM63.1 419.5l-30.9 6.2 6.2-30.9L63.1 419.5zM114.5 378.2l-34.8-34.8 139-139.1 34.8 34.8L114.5 378.2zM264.1 226.5L231.5 194c9.1-4.1 20.6-2.6 27.8 4.7C266.9 206.2 268.4 217.4 264.1 226.5z"/><rect x="187.4" y="221.4" transform="matrix(0.7071 0.7071 -0.7071 0.7071 242.7974 -61.466)" width="16.4" height="81.9"/></svg>