<svg xmlns="http://www.w3.org/2000/svg" viewBox="-387 244.2 16.3 46.3"><path d="M-386 262.6v-2.1c0.6-0.2 1.4-0.5 2.5-0.8 1-0.3 2.1-0.5 3.3-0.7 1.2-0.2 2.3-0.4 3.4-0.5 1.1-0.1 2.1-0.2 3-0.2l1.1 0.7 -5.6 26.5h4.3v2.2c-0.5 0.4-1.2 0.7-1.9 1.1 -0.7 0.3-1.5 0.6-2.3 0.9 -0.8 0.3-1.6 0.5-2.4 0.6 -0.8 0.1-1.6 0.2-2.3 0.2 -1.6 0-2.6-0.3-3.2-0.9 -0.6-0.6-0.9-1.3-0.9-2 0-0.8 0.1-1.6 0.2-2.4 0.1-0.8 0.3-1.6 0.5-2.6l4.2-19.1L-386 262.6zM-380.8 248.7c0-1.4 0.5-2.5 1.4-3.3 0.9-0.8 2.1-1.2 3.6-1.2 1.6 0 2.8 0.4 3.7 1.2s1.4 1.9 1.4 3.3c0 1.3-0.5 2.4-1.4 3.1 -0.9 0.8-2.2 1.2-3.7 1.2 -1.4 0-2.6-0.4-3.6-1.2C-380.3 251.1-380.8 250.1-380.8 248.7z"/></svg>