<?xml version="1.0" encoding="utf-8"?>
<!-- Generator: Adobe Illustrator 19.0.0, SVG Export Plug-In . SVG Version: 6.00 Build 0)  -->
<svg version="1.1"
	 id="svg3599" xmlns:svg="http://www.w3.org/2000/svg" xmlns:cc="http://creativecommons.org/ns#" xmlns:dc="http://purl.org/dc/elements/1.1/" xmlns:rdf="http://www.w3.org/1999/02/22-rdf-syntax-ns#"
	 xmlns="http://www.w3.org/2000/svg" xmlns:xlink="http://www.w3.org/1999/xlink" x="0px" y="0px"
	 viewBox="-694.1 351.9 560.3 379.2" style="enable-background:new -694.1 351.9 560.3 379.2;" xml:space="preserve">
<style type="text/css">
	.st0{clip-path:url(#SVGID_2_);}
	.st1{clip-path:url(#SVGID_4_);}
	.st2{clip-path:url(#SVGID_6_);}
	.st3{clip-path:url(#SVGID_8_);}
	.st4{fill:#1B458F;}
	.st5{fill:#231F20;}
</style>
<g>
	<g>
		<g>
			<defs>
				<polygon id="SVGID_1_" points="88,516.6 299.2,516.6 299.2,659.5 88,659.5 88,516.6 				"/>
			</defs>
			<clipPath id="SVGID_2_">
				<use xlink:href="#SVGID_1_"  style="overflow:visible;"/>
			</clipPath>
			<g id="layer1" transform="translate(-131.93453,-150.58313)" class="st0">
				<g id="g3053" transform="matrix(2.6530586,0,0,-2.6530586,-795.56269,2252.267)">
					<g>
						<defs>
							<rect id="SVGID_3_" x="-1244.1" y="-831.9" width="3158.6" height="2233.6"/>
						</defs>
						<clipPath id="SVGID_4_">
							<use xlink:href="#SVGID_3_"  style="overflow:visible;"/>
						</clipPath>
						<g id="g3055" class="st1">
							<g id="g3061">
								<g id="g3063">
									<g id="g3069" transform="matrix(200.33333,0,0,132.59607,350.931,658.23)">
										<defs>
											<rect id="SVGID_5_" x="-1579.4" y="-1119.6" width="3158.6" height="2233.6"/>
										</defs>
										<clipPath id="SVGID_6_">
											<use xlink:href="#SVGID_5_"  style="overflow:visible;"/>
										</clipPath>
										<g id="g3071" class="st2">
											<g id="g3073">
												<g id="g3079">
													<defs>
														<rect id="SVGID_7_" x="-266.5" y="-176.4" width="531.5" height="351.8"/>
													</defs>
													<clipPath id="SVGID_8_">
														<use xlink:href="#SVGID_7_"  style="overflow:visible;"/>
													</clipPath>
													<g id="g3081" class="st3">
														<path id="path3087" class="st4" d="M-1.2-0.2C-1.2-0.2-1.2-0.2-1.2-0.2C-1.2-0.2-1.2-0.2-1.2-0.2
															c0-0.1,0.1-0.1,0.1-0.1c0,0,0,0,0,0c0,0,0,0,0,0c0,0,0,0,0,0c0,0,0,0,0,0l0,0v0v0v0v0v0c0,0,0,0.1,0,0.1
															c0,0,0,0.1,0,0.1C-1.1-0.2-1.1-0.1-1.2-0.2c0,0.1-0.1,0-0.1,0.1c0,0,0,0,0,0c0,0,0,0,0,0C-1.3-0.1-1.3-0.1-1.2-0.2
															C-1.2-0.2-1.2-0.2-1.2-0.2z M-1.1-0.2C-1.1-0.2-1-0.2-1.1-0.2C-1-0.3-1-0.3-1-0.3c0,0,0,0,0,0c0,0,0,0,0,0
															C-1-0.3-1-0.3-1.1-0.2C-1.1-0.2-1.1-0.2-1.1-0.2C-1.1-0.2-1.2-0.2-1.1-0.2C-1.2-0.2-1.2-0.2-1.1-0.2
															C-1.2-0.2-1.1-0.2-1.1-0.2z M-1.2-0.2C-1.1-0.3-1.1-0.2-1.2-0.2c0.1,0,0.1,0,0.1-0.1c0,0,0,0,0,0c0,0,0,0,0,0.1
															C-1.1-0.2-1.1-0.2-1.2-0.2C-1.1-0.2-1.1-0.2-1.2-0.2z M-1.2-0.1C-1.2-0.1-1.2-0.1-1.2-0.1c0.1,0,0.2,0,0.2-0.1
															c0,0,0-0.1,0-0.1c0,0,0,0,0,0c0,0,0,0.1-0.1,0.1C-1.2-0.2-1.2-0.2-1.2-0.1"/>
														<path id="path3089" class="st4" d="M-1.3-0.3C-1.3-0.3-1.3-0.3-1.3-0.3C-1.2-0.3-1.2-0.3-1.3-0.3
															c0.1-0.1,0.1-0.1,0.1-0.1C-1.2-0.4-1.2-0.3-1.3-0.3C-1.2-0.3-1.2-0.3-1.3-0.3C-1.2-0.3-1.3-0.3-1.3-0.3"/>
														<path id="path3091" class="st4" d="M-1-0.2C-1-0.2-1-0.2-1-0.2C-1-0.2-1-0.2-1-0.2C-1-0.2-1-0.2-1-0.2
															C-1-0.2-1-0.2-1-0.2z M-1-0.5C-1-0.5-1-0.5-1-0.5C-1-0.5-0.9-0.4-1-0.5C-0.9-0.4-0.9-0.4-1-0.5
															C-0.9-0.4-0.9-0.4-1-0.5C-0.9-0.4-0.9-0.4-1-0.5C-0.9-0.3-0.9-0.4-1-0.5C-0.9-0.3-0.9-0.4-1-0.5C-1-0.4-1-0.4-1-0.5
															c0,0,0,0.2,0,0.2c0,0,0,0,0,0c0,0,0,0,0,0c0,0,0,0,0,0c0,0,0,0,0,0c0,0,0,0,0,0c0,0,0,0,0,0c0,0-0.1,0-0.1,0
															c0,0,0,0,0,0C-1-0.3-1-0.4-1-0.5C-1-0.2-1-0.3-1-0.3c0,0,0-0.1,0-0.1c0-0.2-0.1-0.1-0.1-0.1C-1.1-0.5-1-0.5-1-0.5
															L-1-0.5C-1-0.5-0.9-0.5-1-0.5C-0.9-0.4-0.9-0.4-1-0.5C-0.9-0.4-1-0.5-1-0.5"/>
														<path id="path3093" class="st4" d="M-1-0.4C-1-0.4-1.1-0.4-1-0.4c-0.1,0-0.1,0-0.1-0.1c0,0,0,0,0-0.1c0,0,0,0,0-0.1
															c0,0,0,0.1,0,0.1c0,0,0,0,0.1,0.1C-1.2-0.4-1.2-0.4-1-0.4C-1.1-0.4-1.1-0.4-1-0.4"/>
														<path id="path3095" class="st4" d="M-1.1-0.4C-1.1-0.4-1.1-0.4-1.1-0.4c0-0.1,0-0.1,0-0.1c0,0,0,0-0.1-0.1
															c0,0,0,0.1,0.1,0.1C-1.2-0.5-1.1-0.5-1.1-0.4C-1.1-0.4-1.1-0.4-1.1-0.4"/>
														<path id="path3097" class="st5" d="M-1-0.6h0.1C-0.9-0.7-1-0.7-1-0.6C-1-0.7-1-0.8-1-0.8C-1.1-0.8-1.1-0.7-1-0.6
															C-1.1-0.7-1.1-0.7-1-0.6C-1.1-0.6-1.1-0.6-1-0.6C-1.1-0.6-1.1-0.5-1-0.6c0,0.1,0,0.1,0,0.1c0,0,0,0,0,0c0,0,0,0,0,0
															C-1-0.5-1-0.5-1-0.6L-1-0.6C-1-0.5-1-0.5-1-0.6c0,0.1,0,0.1,0,0.1C-1-0.5-1.1-0.5-1-0.6C-1.1-0.6-1.1-0.6-1-0.6
															C-1.1-0.7-1.1-0.7-1-0.6C-1.1-0.7-1-0.7-1-0.6C-1-0.7-1-0.7-1-0.6C-1-0.7-1-0.7-1-0.6L-1-0.6"/>
														<path id="path3099" class="st5" d="M-0.9-0.5v-0.2h0L-0.9-0.5L-0.9-0.5C-0.9-0.5-0.9-0.5-0.9-0.5
															C-0.9-0.5-0.9-0.5-0.9-0.5C-0.9-0.5-0.8-0.5-0.9-0.5C-0.8-0.6-0.8-0.6-0.9-0.5c0.1-0.1,0.1-0.1,0.1-0.1c0,0,0,0,0,0
															l0-0.1h0l0,0.1h0C-0.9-0.6-0.9-0.6-0.9-0.5C-0.9-0.6-0.9-0.6-0.9-0.5C-0.9-0.6-0.9-0.6-0.9-0.5
															C-0.9-0.5-0.9-0.5-0.9-0.5C-0.9-0.5-0.9-0.5-0.9-0.5C-0.9-0.5-0.9-0.5-0.9-0.5"/>
														<path id="path3101" class="st5" d="M-0.8-0.7L-0.8-0.7l0,0.2h0L-0.8-0.7L-0.8-0.7z"/>
														<path id="path3103" class="st5" d="M-0.8-0.7v0.2h0.1v0h-0.1v-0.1h0.1v0h-0.1L-0.8-0.7"/>
														<path id="path3105" class="st5" d="M-0.7-0.7v0.2h0.1v0h-0.1v-0.1h0.1v0h-0.1L-0.7-0.7"/>
														<path id="path3107" class="st5" d="M-0.6-0.6C-0.6-0.7-0.6-0.7-0.6-0.6c0-0.1,0-0.1,0.1-0.1c0,0,0,0,0,0
															c0,0,0,0,0,0.1c0,0,0,0.1,0,0.1c0,0,0,0,0,0C-0.5-0.5-0.5-0.5-0.6-0.6C-0.5-0.5-0.6-0.5-0.6-0.6
															C-0.6-0.6-0.6-0.6-0.6-0.6C-0.6-0.6-0.6-0.6-0.6-0.6z M-0.6-0.6C-0.6-0.6-0.6-0.6-0.6-0.6C-0.6-0.6-0.6-0.5-0.6-0.6
															c0,0.1,0,0.1,0.1,0.1c0,0,0,0,0,0c0,0,0,0,0,0c0,0,0,0,0,0c0,0,0,0,0,0c0,0,0,0,0,0c0,0,0,0,0,0c0,0,0,0,0,0
															c0,0,0,0,0,0c0,0,0,0,0,0C-0.5-0.8-0.6-0.7-0.6-0.6C-0.6-0.7-0.6-0.7-0.6-0.6"/>
														<path id="path3109" class="st5" d="M-0.3-0.7l0,0.2h0L-0.3-0.7L-0.3-0.7l-0.1,0.2L-0.3-0.7l-0.1,0v0.2h0"/>
														<path id="path3111" class="st5" d="M-0.7-1L-0.7-1 M-0.8-1L-0.8-1"/>
														<path id="path3115" class="st5" d="M-0.7-1"/>
														<path id="path3119" class="st5" d="M-0.7-1"/>
														<path id="path3121" class="st5" d="M-0.7-1"/>
														<path id="path3125" class="st5" d="M-0.6-1"/>
														<path id="path3133" class="st5" d="M-0.6-1"/>
														<path id="path3153" class="st5" d="M-0.4-1L-0.4-1"/>
														<path id="path3173" class="st4" d="M-1.1-0.9L-1.1-0.9L-1.1-0.9L-1.1-0.9L-1.1-0.9L-1.1-0.9L-1.1-0.9L-1.1-0.9
															L-1.1-0.9L-1.1-0.9L-1.1-0.9L-1.1-0.9"/>
														<path id="path3175" class="st4" d="M-1-0.9C-1-0.9-1-0.9-1-0.9C-1-0.9-1-0.9-1-0.9C-1-0.9-1-0.9-1-0.9
															C-1-0.9-1-0.9-1-0.9C-1-0.9-1-0.9-1-0.9C-0.9-0.9-0.9-0.9-1-0.9C-0.9-0.9-0.9-0.9-1-0.9C-1-0.8-1-0.8-1-0.9
															C-1-0.8-1-0.8-1-0.9C-1-0.9-1-0.9-1-0.9z M-1-0.9C-1-0.9-1-0.9-1-0.9C-1-0.8-1-0.8-1-0.9C-1-0.8-1-0.8-1-0.9
															C-1-0.8-1-0.8-1-0.9C-1-0.8-1-0.8-1-0.9C-0.9-0.8-0.9-0.8-1-0.9c0.1,0,0.1,0,0.1,0c0,0,0,0,0,0c0,0,0,0,0,0
															S-0.9-0.9-1-0.9C-0.9-0.9-0.9-0.9-1-0.9C-1-1-1-1-1-0.9C-1-1-1-1-1-0.9C-1-0.9-1-0.9-1-0.9C-1-0.9-1-0.9-1-0.9
															C-1-0.9-1-0.9-1-0.9"/>
														<path id="path3177" class="st4" d="M-0.9-1L-0.9-1l-0.1,0.2h0L-0.9-1l0,0.2h0"/>
														<path id="path3179" class="st4" d="M-0.8-1L-0.8-1l-0.1,0.2h0.1v0h0L-0.8-1L-0.8-1L-0.8-1L-0.8-1L-0.8-1L-0.8-1"/>
														<path id="path3181" class="st4" d="M-0.7-0.9L-0.7-0.9C-0.7-0.9-0.7-0.9-0.7-0.9C-0.7-0.9-0.7-0.9-0.7-0.9
															C-0.7-0.8-0.7-0.8-0.7-0.9C-0.7-0.8-0.7-0.8-0.7-0.9L-0.7-0.9L-0.7-0.9L-0.7-0.9z M-0.7-1L-0.7-1l0,0.2h0c0,0,0,0,0,0
															c0,0,0,0,0,0c0,0,0,0,0,0c0,0,0,0,0,0C-0.7-0.9-0.7-0.9-0.7-1C-0.7-0.9-0.7-0.9-0.7-1L-0.7-1L-0.7-1L-0.7-1"/>
														<path id="path3183" class="st4" d="M-0.7-0.8L-0.7-0.8l0-0.1L-0.7-0.8L-0.7-0.8l0.1-0.1l0,0.1h0l0-0.2h0L-0.7-0.8
															l0-0.2h0"/>
														<path id="path3185" class="st4" d="M-0.5-0.9C-0.5-0.9-0.5-0.9-0.5-0.9C-0.5-0.9-0.5-0.9-0.5-0.9
															C-0.5-0.9-0.5-0.9-0.5-0.9C-0.5-0.9-0.5-0.9-0.5-0.9C-0.5-0.9-0.5-0.9-0.5-0.9C-0.5-0.9-0.5-0.9-0.5-0.9
															C-0.5-0.9-0.5-0.9-0.5-0.9C-0.5-0.8-0.5-0.8-0.5-0.9C-0.5-0.8-0.5-0.8-0.5-0.9C-0.5-0.9-0.5-0.9-0.5-0.9z M-0.6-0.9
															C-0.6-0.9-0.6-0.9-0.6-0.9C-0.6-0.8-0.6-0.8-0.6-0.9C-0.6-0.8-0.5-0.8-0.6-0.9C-0.5-0.8-0.5-0.8-0.6-0.9
															C-0.5-0.8-0.5-0.8-0.6-0.9C-0.5-0.8-0.5-0.8-0.6-0.9c0.1,0,0.1,0,0.1,0c0,0,0,0,0,0c0,0,0,0,0,0S-0.5-0.9-0.6-0.9
															C-0.5-0.9-0.5-0.9-0.6-0.9C-0.5-1-0.5-1-0.6-0.9C-0.5-1-0.5-1-0.6-0.9C-0.5-0.9-0.5-0.9-0.6-0.9
															C-0.6-0.9-0.6-0.9-0.6-0.9C-0.6-0.9-0.6-0.9-0.6-0.9"/>
														<path id="path3187" class="st4" d="M-0.4-0.9L-0.4-0.9C-0.4-0.9-0.4-0.9-0.4-0.9C-0.4-0.9-0.4-0.9-0.4-0.9
															C-0.4-0.8-0.4-0.8-0.4-0.9C-0.4-0.8-0.4-0.8-0.4-0.9L-0.4-0.9C-0.4-0.8-0.4-0.9-0.4-0.9z M-0.4-1L-0.4-1l0,0.2h0
															c0,0,0,0,0,0c0,0,0,0,0,0c0,0,0,0,0,0c0,0,0,0,0,0C-0.4-0.9-0.4-0.9-0.4-1C-0.4-0.9-0.4-0.9-0.4-1L-0.4-1L-0.4-1
															L-0.4-1"/>
														<path id="path3189" class="st4" d="M-0.4-0.9L-0.4-0.9L-0.4-0.9L-0.4-0.9L-0.4-0.9L-0.4-0.9C-0.3-1-0.4-0.9-0.4-0.9z
															 M-0.4-1L-0.4-1l0,0.2h0"/>
													</g>
												</g>
											</g>
										</g>
									</g>
								</g>
							</g>
						</g>
					</g>
				</g>
			</g>
		</g>
	</g>
</g>
</svg>
