<svg xmlns="http://www.w3.org/2000/svg" viewBox="0 0 112.6 13.4"><style type="text/css">  
	.st0{fill:none;}
</style><rect y="1.9" class="st0" width="112.6" height="9.6"/><path d="M1.1 3.6c0.2-0.2 0.4-0.2 0.6-0.2 0.2 0 0.4 0.1 0.6 0.2S2.7 4 2.7 4.2 2.6 4.7 2.4 4.8 2 5.1 1.8 5.1C1.5 5.1 1.3 5 1.1 4.8S0.8 4.5 0.8 4.2 0.9 3.8 1.1 3.6zM2.5 6.1v5.2H0.9V6.1H2.5z"/><path d="M4.8 11.2c-0.4-0.2-0.7-0.4-0.9-0.6l0.7-0.9c0.5 0.4 0.9 0.6 1.3 0.6 0.2 0 0.4 0 0.5-0.1 0.1-0.1 0.2-0.2 0.2-0.3 0-0.2-0.1-0.3-0.2-0.4S6 9.4 5.8 9.3C5.6 9.3 5.5 9.2 5.4 9.2 5 9.1 4.6 8.9 4.4 8.6 4.2 8.3 4.1 8 4.1 7.6c0-0.3 0.1-0.6 0.2-0.8C4.4 6.5 4.7 6.3 5 6.1c0.3-0.2 0.7-0.3 1.2-0.3 0.4 0 0.8 0 1.1 0.1 0.3 0.1 0.6 0.2 0.9 0.4l-0.6 1C7.3 7.3 7.2 7.2 7 7.1 6.8 7 6.6 7 6.4 7 6.2 7 6.1 7 6 7.1 5.8 7.2 5.8 7.3 5.8 7.4c0 0.2 0.1 0.3 0.2 0.4C6.1 7.8 6.4 7.9 6.7 8c0 0 0.1 0 0.1 0 0.1 0 0.1 0 0.2 0 0.8 0.3 1.2 0.8 1.2 1.5 0 0.3-0.1 0.6-0.3 0.9 -0.2 0.3-0.4 0.5-0.8 0.7 -0.3 0.2-0.8 0.3-1.2 0.3C5.5 11.4 5.1 11.4 4.8 11.2z"/><path d="M15.3 6.1v5.2h-1.7v-0.6c-0.5 0.5-1.1 0.8-1.8 0.8 -0.8 0-1.4-0.2-1.9-0.7 -0.5-0.5-0.7-1.2-0.7-2.1 0-0.6 0.1-1.1 0.4-1.5 0.2-0.4 0.5-0.8 0.9-1s0.8-0.4 1.3-0.4c0.5 0 0.8 0.1 1.1 0.2 0.3 0.1 0.5 0.3 0.7 0.6l0.1-0.5H15.3zM13.6 9.3V8c-0.1-0.3-0.3-0.5-0.5-0.6 -0.2-0.2-0.5-0.2-0.8-0.2 -0.4 0-0.7 0.1-0.9 0.4 -0.3 0.3-0.4 0.6-0.4 1 0 0.3 0.1 0.5 0.2 0.8 0.1 0.2 0.3 0.4 0.5 0.5s0.4 0.2 0.7 0.2C12.9 10.1 13.3 9.9 13.6 9.3z"/><path d="M22.6 6.1v5.2H21v-0.6c-0.5 0.5-1.1 0.8-1.8 0.8 -0.8 0-1.4-0.2-1.9-0.7 -0.5-0.5-0.7-1.2-0.7-2.1 0-0.6 0.1-1.1 0.4-1.5 0.2-0.4 0.5-0.8 0.9-1s0.8-0.4 1.3-0.4c0.5 0 0.8 0.1 1.1 0.2 0.3 0.1 0.5 0.3 0.7 0.6l0.1-0.5H22.6zM21 9.3V8c-0.1-0.3-0.3-0.5-0.5-0.6 -0.2-0.2-0.5-0.2-0.8-0.2 -0.4 0-0.7 0.1-0.9 0.4 -0.3 0.3-0.4 0.6-0.4 1 0 0.3 0.1 0.5 0.2 0.8 0.1 0.2 0.3 0.4 0.5 0.5s0.4 0.2 0.7 0.2C20.3 10.1 20.7 9.9 21 9.3z"/><path d="M28 11.3c-0.3 0.1-0.7 0.2-1 0.2 -0.9 0-1.6-0.2-2.2-0.7 -0.5-0.5-0.8-1.2-0.8-2 0-0.6 0.1-1.1 0.4-1.5 0.3-0.4 0.6-0.7 1-1C25.8 6.1 26.3 6 26.7 6c0.9 0 1.6 0.2 2.1 0.7l-0.8 1.1c-0.3-0.3-0.7-0.4-1.2-0.4 -0.4 0-0.6 0.1-0.9 0.4 -0.2 0.3-0.4 0.6-0.4 1 0 0.4 0.1 0.7 0.4 1 0.3 0.3 0.6 0.4 1 0.4 0.4 0 0.7-0.1 0.9-0.3l0.8 1.1C28.6 11.1 28.3 11.2 28 11.3z"/><path d="M35.8 6.1v5.2h-1.7v-0.6c-0.5 0.5-1.1 0.8-1.8 0.8 -0.8 0-1.4-0.2-1.9-0.7 -0.5-0.5-0.7-1.2-0.7-2.1 0-0.6 0.1-1.1 0.4-1.5 0.2-0.4 0.5-0.8 0.9-1s0.8-0.4 1.3-0.4c0.5 0 0.8 0.1 1.1 0.2 0.3 0.1 0.5 0.3 0.7 0.6l0.1-0.5H35.8zM34.1 9.3V8c-0.1-0.3-0.3-0.5-0.5-0.6 -0.2-0.2-0.5-0.2-0.8-0.2 -0.4 0-0.7 0.1-0.9 0.4 -0.3 0.3-0.4 0.6-0.4 1 0 0.3 0.1 0.5 0.2 0.8 0.1 0.2 0.3 0.4 0.5 0.5s0.4 0.2 0.7 0.2C33.4 10.1 33.8 9.9 34.1 9.3z"/><path d="M42.4 6.3c0.3 0.3 0.5 0.7 0.5 1.1v3.9h-1.7V8c0-0.5-0.3-0.8-0.8-0.8 -0.4 0-0.7 0.2-0.9 0.5 -0.2 0.4-0.3 0.8-0.3 1.4v2.1h-1.7V6.1H39l0.1 0.8c0.2-0.3 0.5-0.6 0.8-0.8 0.3-0.2 0.7-0.3 1.2-0.3C41.6 5.8 42 6 42.4 6.3z"/><path d="M50.4 1.9v9.5h-1.7v-0.6c-0.6 0.5-1.3 0.7-1.9 0.7 -0.5 0-0.9-0.1-1.3-0.3 -0.4-0.2-0.7-0.6-0.9-1 -0.2-0.4-0.3-0.9-0.3-1.5 0-0.6 0.1-1.1 0.4-1.5 0.2-0.4 0.6-0.7 1-1C46 5.9 46.4 5.8 47 5.8c0.3 0 0.7 0.1 1 0.2 0.3 0.1 0.6 0.3 0.8 0.5V1.9H50.4zM48.1 9.9c0.2-0.1 0.4-0.3 0.6-0.6V8c-0.1-0.3-0.3-0.5-0.5-0.6 -0.2-0.2-0.5-0.2-0.9-0.2 -0.4 0-0.7 0.1-1 0.4 -0.3 0.3-0.4 0.6-0.4 1 0 0.3 0.1 0.5 0.2 0.8 0.1 0.2 0.3 0.4 0.5 0.5s0.4 0.2 0.7 0.2C47.6 10.1 47.9 10 48.1 9.9z"/><path d="M55.8 9.7l0.7 1.2c-0.3 0.2-0.6 0.3-0.9 0.4 -0.3 0.1-0.6 0.1-0.9 0.1 -0.6 0-1.2-0.1-1.6-0.4 -0.5-0.2-0.8-0.6-1-1 -0.2-0.4-0.3-0.9-0.3-1.5 0-0.5 0.1-1 0.4-1.4 0.3-0.4 0.6-0.8 1.1-1 0.5-0.3 1-0.4 1.5-0.4 0.8 0 1.4 0.2 1.9 0.7 0.5 0.4 0.8 1.1 0.9 1.9l-3.8 1.2c0.3 0.3 0.6 0.4 1 0.4C55.1 10.1 55.4 9.9 55.8 9.7zM53.7 7.5c-0.2 0.3-0.3 0.6-0.3 1v0.1l2.3-0.8c-0.2-0.5-0.5-0.7-1.1-0.7C54.2 7.2 53.9 7.3 53.7 7.5z"/><path d="M61 6.5c0.3-0.2 0.5-0.4 0.8-0.5 0.3-0.1 0.5-0.2 0.6-0.2l-0.1 1.7c0 0-0.1 0-0.2 0 -0.3 0-0.6 0.1-0.9 0.3 -0.3 0.2-0.5 0.4-0.6 0.7 -0.1 0.3-0.2 0.6-0.2 0.8v2.1h-1.7V6.1h1.5l0.1 1.2C60.5 7 60.7 6.8 61 6.5z"/><path d="M64.2 11.2c-0.4-0.2-0.7-0.4-0.9-0.6l0.7-0.9c0.5 0.4 0.9 0.6 1.3 0.6 0.2 0 0.4 0 0.5-0.1 0.1-0.1 0.2-0.2 0.2-0.3 0-0.2-0.1-0.3-0.2-0.4 -0.2-0.1-0.3-0.2-0.5-0.2 -0.2-0.1-0.3-0.1-0.4-0.1 -0.5-0.1-0.8-0.4-1-0.6 -0.2-0.3-0.3-0.6-0.3-1 0-0.3 0.1-0.6 0.2-0.8 0.1-0.3 0.4-0.5 0.7-0.7 0.3-0.2 0.7-0.3 1.2-0.3 0.4 0 0.8 0 1.1 0.1 0.3 0.1 0.6 0.2 0.9 0.4l-0.6 1c-0.2-0.1-0.3-0.2-0.5-0.3S66 7 65.8 7c-0.2 0-0.3 0-0.5 0.1 -0.1 0.1-0.2 0.2-0.2 0.3 0 0.2 0.1 0.3 0.2 0.4 0.1 0.1 0.4 0.2 0.7 0.3 0 0 0.1 0 0.2 0s0.1 0 0.2 0c0.8 0.3 1.2 0.8 1.2 1.5 0 0.3-0.1 0.6-0.3 0.9 -0.2 0.3-0.4 0.5-0.8 0.7s-0.8 0.3-1.2 0.3C64.9 11.4 64.5 11.4 64.2 11.2z"/><path d="M69 7.2c0.3-0.4 0.6-0.8 1.1-1s1-0.4 1.6-0.4 1.1 0.1 1.5 0.4c0.4 0.2 0.8 0.6 1 1s0.4 0.9 0.4 1.4c0 0.5-0.1 1-0.4 1.5s-0.6 0.8-1 1c-0.4 0.2-1 0.4-1.6 0.4 -0.6 0-1.1-0.1-1.6-0.3 -0.5-0.2-0.8-0.6-1.1-1 -0.3-0.4-0.4-0.9-0.4-1.5C68.6 8.1 68.7 7.6 69 7.2zM70.7 9.7c0.2 0.3 0.5 0.4 0.9 0.4 0.4 0 0.7-0.1 0.9-0.4 0.2-0.3 0.4-0.6 0.4-1 0-0.4-0.1-0.8-0.4-1 -0.2-0.3-0.5-0.4-0.9-0.4 -0.4 0-0.7 0.1-0.9 0.4 -0.2 0.3-0.4 0.6-0.4 1S70.4 9.4 70.7 9.7z"/><path d="M80.8 6.3c0.3 0.3 0.5 0.7 0.5 1.1v3.9h-1.7V8c0-0.5-0.3-0.8-0.8-0.8 -0.4 0-0.7 0.2-0.9 0.5s-0.3 0.8-0.3 1.4v2.1h-1.7V6.1h1.5l0.1 0.8c0.2-0.3 0.5-0.6 0.8-0.8 0.3-0.2 0.7-0.3 1.2-0.3C80 5.8 80.4 6 80.8 6.3z"/><path d="M82.6 9.9c0.2-0.2 0.4-0.3 0.6-0.3 0.2 0 0.4 0.1 0.6 0.3 0.2 0.2 0.3 0.4 0.3 0.6 0 0.2-0.1 0.5-0.3 0.6s-0.4 0.2-0.6 0.2c-0.2 0-0.4-0.1-0.6-0.2 -0.2-0.2-0.3-0.4-0.3-0.6C82.3 10.2 82.4 10 82.6 9.9z"/><path d="M88.6 11.3c-0.3 0.1-0.7 0.2-1 0.2 -0.9 0-1.6-0.2-2.2-0.7 -0.5-0.5-0.8-1.2-0.8-2 0-0.6 0.1-1.1 0.4-1.5 0.3-0.4 0.6-0.7 1-1C86.5 6.1 87 6 87.4 6c0.9 0 1.6 0.2 2.1 0.7l-0.8 1.1c-0.3-0.3-0.7-0.4-1.2-0.4 -0.4 0-0.7 0.1-0.9 0.4 -0.2 0.3-0.4 0.6-0.4 1 0 0.4 0.1 0.7 0.4 1 0.3 0.3 0.6 0.4 1 0.4 0.4 0 0.7-0.1 0.9-0.3l0.8 1.1C89.3 11.1 89 11.2 88.6 11.3z"/><path d="M90.8 7.2c0.3-0.4 0.6-0.8 1.1-1s1-0.4 1.6-0.4S94.5 6 95 6.2c0.4 0.2 0.8 0.6 1 1s0.4 0.9 0.4 1.4c0 0.5-0.1 1-0.4 1.5s-0.6 0.8-1 1c-0.4 0.2-1 0.4-1.6 0.4 -0.6 0-1.1-0.1-1.6-0.3 -0.5-0.2-0.8-0.6-1.1-1 -0.3-0.4-0.4-0.9-0.4-1.5C90.4 8.1 90.5 7.6 90.8 7.2zM92.5 9.7c0.2 0.3 0.5 0.4 0.9 0.4 0.4 0 0.7-0.1 0.9-0.4 0.2-0.3 0.4-0.6 0.4-1 0-0.4-0.1-0.8-0.4-1 -0.2-0.3-0.5-0.4-0.9-0.4 -0.4 0-0.7 0.1-0.9 0.4 -0.2 0.3-0.4 0.6-0.4 1S92.2 9.4 92.5 9.7z"/><path d="M97.2 9.9c0.2-0.2 0.4-0.3 0.6-0.3 0.2 0 0.4 0.1 0.6 0.3 0.2 0.2 0.3 0.4 0.3 0.6 0 0.2-0.1 0.5-0.3 0.6s-0.4 0.2-0.6 0.2c-0.2 0-0.4-0.1-0.6-0.2 -0.2-0.2-0.3-0.4-0.3-0.6C97 10.2 97.1 10 97.2 9.9z"/><path d="M105 6.1v5.2h-1.5l-0.1-0.8c-0.2 0.3-0.4 0.6-0.8 0.8 -0.3 0.2-0.7 0.3-1.2 0.3 -0.5 0-0.9-0.1-1.2-0.4 -0.3-0.3-0.5-0.7-0.5-1.1V6.1h1.7v3.3c0 0.5 0.3 0.8 0.7 0.8 0.4 0 0.7-0.2 0.9-0.5 0.2-0.4 0.3-0.8 0.3-1.4V6.1H105z"/><path d="M108.9 9.2l-0.5 0.3v1.8h-1.7V1.9h1.7v5.9l2.5-1.8 1 0.9 -1.9 1.4 2.1 3.1h-2L108.9 9.2z"/></svg>