<svg xmlns="http://www.w3.org/2000/svg" width="500px" viewBox="-453.7 264.3 36.3 32.5"><style type="text/css">.st0{fill:none;}
</style><rect x="-457" y="254.5" class="st0" width="43.1" height="53.5"/><path d="M-452.6 265.3c0.8-0.7 1.6-1 2.6-1 0.9 0 1.8 0.3 2.5 1 0.7 0.7 1.1 1.5 1.1 2.4s-0.4 1.8-1.1 2.4c-0.7 0.6-1.6 1-2.5 1 -1 0-1.8-0.3-2.6-1 -0.8-0.6-1.1-1.4-1.1-2.4S-453.3 266-452.6 265.3zM-446.8 275.2v21h-6.7v-21H-446.8z"/><path d="M-417.4 275.2v21h-6.7v-2.6c-2 2.1-4.4 3.2-7 3.2 -3.1 0-5.6-0.9-7.6-2.8 -1.9-1.9-2.9-4.6-2.9-8.3 0-2.3 0.5-4.3 1.4-6.1 0.9-1.7 2.2-3.1 3.8-4.1 1.6-1 3.2-1.4 5-1.4 1.9 0 3.3 0.3 4.4 0.8 1.1 0.6 2 1.4 2.9 2.4l0.4-2.2h6.3V275.2zM-424.1 288.1V283c-0.4-1-1-1.8-2-2.4 -0.9-0.6-2.1-0.9-3.3-0.9 -1.5 0-2.7 0.5-3.8 1.6 -1 1.1-1.6 2.5-1.6 4.1 0 1.1 0.3 2.1 0.8 3s1.2 1.6 2 2.1c0.8 0.5 1.8 0.8 2.8 0.8C-426.8 291.3-425.1 290.2-424.1 288.1z"/></svg>