<?xml version="1.0" encoding="utf-8"?>
<!-- Generator: Adobe Illustrator 19.0.0, SVG Export Plug-In . SVG Version: 6.00 Build 0)  -->
<svg version="1.1" id="Layer_1" xmlns="http://www.w3.org/2000/svg" xmlns:xlink="http://www.w3.org/1999/xlink" x="0px" y="0px"
	 viewBox="-1391.8 552.5 272.2 243.7" style="enable-background:new -1391.8 552.5 272.2 243.7;" xml:space="preserve">
<style type="text/css">
	.st0{fill:none;}
</style>
<rect x="-1277.1" y="648.3" class="st0" width="43.1" height="53.5"/>
<path d="M-1383.6,560c6-5.2,12-7.5,19.5-7.5c6.7,0,13.5,2.2,18.7,7.5c5.2,5.2,8.2,11.2,8.2,18s-3,13.5-8.2,18s-12,7.5-18.7,7.5
	c-7.5,0-13.5-2.2-19.5-7.5c-6-4.5-8.2-10.5-8.2-18S-1388.8,565.2-1383.6,560z M-1340.1,634.2v157.5h-50.2V634.2H-1340.1z"/>
<path d="M-1119.6,634.2v157.5h-50.2v-19.5c-15,15.7-33,24-52.5,24c-23.2,0-42-6.7-57-21c-14.2-14.2-21.7-34.5-21.7-62.2
	c0-17.2,3.7-32.2,10.5-45.7c6.7-12.7,16.5-23.2,28.5-30.7s24-10.5,37.5-10.5c14.2,0,24.7,2.2,33,6c8.2,4.5,15,10.5,21.7,18l3-16.5
	h47.2V634.2L-1119.6,634.2z M-1169.8,731v-38.2c-3-7.5-7.5-13.5-15-18c-6.7-4.5-15.7-6.7-24.7-6.7c-11.2,0-20.2,3.7-28.5,12
	c-7.5,8.2-12,18.7-12,30.7c0,8.2,2.2,15.7,6,22.5c3.7,6.7,9,12,15,15.7s13.5,6,21,6C-1190.1,755-1177.3,746.7-1169.8,731z"/>
</svg>
